<svg xmlns="http://www.w3.org/2000/svg" width="497.166" height="824.646" viewBox="0 0 497.166 824.646">
  <g id="Audrey" transform="translate(-919.955 -178.854)">
    <g id="Body" transform="translate(944.752 494.646)">
      <path id="Differenzmenge_8" data-name="Differenzmenge 8" d="M-3572.245,2146.74h-270.983c.735-6.351,1.253-11.017,1.259-11.062l4.73-44.931,17.144-41.975,21.875-49.66-39.019-5.321-37.837-4.138c-.1-.089-10.081-8.879-11.824-9.46s-7.626-22.832-7.685-23.056v-26.013l-6.5-9.459,2.956-17.736-6.5-18.918-2.365-13.6,8.867-8.277,34.29-24.83,18.919-11.824,7.686-12.415,5.912-14.78h15.372l2.955-15.372,14.189-15.962-2.957-31.925v-21.283l20.693-31.925,47.3-22.465,31.333,10.05,76.857,17.736H-3490.2l18.918,13.6L-3450,1724.2l8.868,38.428,6.5,27.787-6.5,42.566-16.553,30.151c-.338.8-8.291,19.562-8.869,21.875s-12.882,18.752-13.006,18.918l-14.189,41.385-16.553,26.6-3.547,32.516-24.239,30.742-10.05,13.6-13.6,33.107-17.145,4.139,4.729,30.15,1.91,30.572Z" transform="translate(3907 -1637.887)" fill="#281c10"/>
      <path id="Pfad_132" data-name="Pfad 132" d="M4680.136-1679.613l-58.528,13.6-36.654,3.547-15.963,20.1-27.786,34.881-11.233,30.742,11.233,23.057v30.742l8.868,31.925,18.918,8.277,37.837-11.233,36.063-13.006,33.107-2.365,4.138-24.83h16.554s14.189-21.283,15.962-21.874,13.6-14.189,13.6-17.145,13.006-27.786,13.006-27.786h19.509l34.881-6.5,34.88-6.5,8.868-14.189-20.1-26.013-41.383-31.925-49.661,2.956Z" transform="translate(-4406.407 1686.116)" fill="#7c4536"/>
      <path id="Schnittmenge_22" data-name="Schnittmenge 22" d="M20.1,172.684,11.233,140.76V110.017L0,86.961,11.233,56.219,39.019,21.337l15.963-20.1L67.763,0l-25.2,38.482S15.371,88.734,15.371,91.1s27.195,55.573,27.195,55.573h44.34L148.982,91.1s24.83,1.774,26.6,0S216.97,33.162,216.97,33.162H266.63l16.554-13.007V6.321l4.138,3.192,20.1,26.013-8.868,14.188-34.88,6.5-34.881,6.5h-19.51s-13.007,24.831-13.007,27.786-11.823,16.554-13.6,17.145-15.963,21.874-15.963,21.874H150.164l-4.138,24.831-33.108,2.365L76.856,169.728,39.019,180.961Z" transform="translate(123.564 22.411)" fill="#60382e"/>
      <path id="Schnittmenge_25" data-name="Schnittmenge 25" d="M138.878,267.766l-7.993-28.974L81.929,197.827,44.96,177.845H14.987s3,19.982,0,19.982S0,210.816,0,210.816V172.85L7.993,125.89,51.954,73.935l14.987-44.96L108.9,5,86.924,28.975,81.929,47.958,97.915,28.975,138.878,0,113.9,28.975,81.929,65.943,66.942,73.935V95.917H97.915L74.935,115.9H51.954L44.96,135.882l6.994,12.989-11.989,5L20.982,172.85l30.972-6.994,39.965,11.989,53.953,32.971L165.3,247.823l-13.729,17.413-5.2,7.029Z" transform="translate(217.336 132.051)" fill="#140f0a"/>
      <path id="Schnittmenge_24" data-name="Schnittmenge 24" d="M72.936,129.371l5-35.968,5-51.955-9.991,7.993L36.968,103.394,0,141.361,45.96,77.417S64.944,29.459,64.944,26.462C64.944,24.471,78.607,9.7,87.784,0l7.879,34.141,6.5,27.786-6.5,42.567L79.109,134.645s-3.173,7.478-5.73,13.735C73.358,139.9,72.936,129.371,72.936,129.371Z" transform="translate(370.203 90.603)" fill="#140f0a"/>
      <path id="Schnittmenge_26" data-name="Schnittmenge 26" d="M74.934,119.9l-34.97-18.983L22.979,76.933l34.97,23.979,16.985,5L53.952,76.933,22.979,39.965,0,0,44.96,43.962,80.929,76.933l15.511,29-.488,1.188-17.145,4.139,1.355,8.637Z" transform="translate(249.309 336.873)" fill="#140f0a"/>
      <path id="Pfad_139" data-name="Pfad 139" d="M4600.554-1305.015l42.963,31.972s3-18.983,5.995-18.983,38.966,30.973,38.966,30.973l17.984,28.975h-69.938l-35.969-40.964Z" transform="translate(-4402.201 1708.829)" fill="#140f0a"/>
      <path id="Schnittmenge_23" data-name="Schnittmenge 23" d="M57.347,164.9,19.51,160.765S9.46,151.9,7.686,151.305,0,128.249,0,128.249V112.138l10.093,17.749s30.972-19.983,33.969-22.98S74.037,82.927,74.037,82.927L59.049,129.887l6.994,11.989L83.029,102.91l5.995-44.961L66.043,0,96.017,52.954l12.988,34.969L96.017,110.9l6.994,43.961L85.782,168.78Z" transform="translate(12.415 191)" fill="#140f0a"/>
      <path id="Differenzmenge_9" data-name="Differenzmenge 9" d="M-3572.244,1795.252h-127.061l-45.233-60.31-69.588-51.207,10.3-23.38,31.621,14.639,139.877,76.857,44.577,11.528,4.61-28.437,14.6-7.686,2.06,4.278-12.407,2.994,4.73,30.15,1.911,30.573Z" transform="translate(3907 -1286.397)" fill="#140f0a"/>
    </g>
    <g id="Hand" transform="translate(919.955 408.357)">
      <path id="Pfad_117" data-name="Pfad 117" d="M4420.04-1446.833l-4.2-23.438v-93.752l-4.2-43.728v-34.633l-11.544-14.343-10.145-19.94v-11.194L4400.1-1712.7l9.1-6.647,6.647-9.8h9.445l4.9-6.3,10.145-1.749h11.194l5.947-6.647,12.594,3.148s5.946,9.1,7,11.544,7.7,13.993,7.7,13.993l4.9,20.29s-.35,13.993,0,15.042-24.488,41.979-24.488,41.979l-3.5,37.081,1.75,44.078,6.646,47.226,11.194,39.18v7.7h-26.236l-12.943,8.4Z" transform="translate(-4389.955 1768.966)" fill="#d8827b"/>
      <path id="Schnittmenge_18" data-name="Schnittmenge 18" d="M29.036,68.434,10.845,56.89,0,50.243,5.947,36.6l13.294,2.1L17.492,50.243l5.6,6.647,5.947,5.247,3.5-9.1L30.785,34.5l-5.6-7.7,7.346,5.248,2.8,18.191,8.046,2.8L46.527,45,48.276,26.8l5.247-6.3-5.247-8.745,13.643-1.75L63.844,0l5.382,1.345.389.972-4.2,12.594,4.2,9.445L75.562,36.6,61.919,53.041,46.527,68.434Z" transform="translate(8.395 26.314)" fill="#9e5c56"/>
      <path id="Schnittmenge_17" data-name="Schnittmenge 17" d="M19.3,241.681c-1.775-13.906-4.717-36.809-4.961-37.781-.35-1.4-10.495-38.13-10.495-38.13l-1.4-34.632,1.4-36.732L0,65.72,7,46.129,35.332,19.893,39.01,0l2.269,9.4s-.35,13.992,0,15.042S16.792,66.419,16.792,66.419l-3.5,37.081,1.749,44.078L21.688,194.8l11.195,39.18v7.7Z" transform="translate(58.42 64.71)" fill="#9e5c56"/>
      <path id="Schnittmenge_19" data-name="Schnittmenge 19" d="M7.354,9.137,0,0C12.13,4.851,22.747,9.137,22.747,9.137L15.4,18.583,7.354,19.656Z" transform="translate(14.334 117.443)" fill="#9e5c56"/>
      <path id="Pfad_124" data-name="Pfad 124" d="M4423.638-1767.552l-1.242,6.624,14.9,25.668,8.694,2.277,3.312-1.035-16.974-33.533Z" transform="translate(-4388.021 1767.552)" fill="#d9d9d9"/>
      <path id="Pfad_125" data-name="Pfad 125" d="M4450.013-1723.988l-1.862,4.968-2.9,3.519,7.038,12.834,4.14,5.175,5.8-1.035,1.656-4.14-5.381-11.592-5.382-9.729Z" transform="translate(-4386.66 1770.148)" fill="#d9d9d9"/>
    </g>
    <g id="Hand_2" data-name="Hand 2" transform="translate(1007.968 814.622)">
      <path id="Pfad_129" data-name="Pfad 129" d="M4473.018-1354.123h11.824l8.186-7.276,16.826-17.736,8.641-5,14.552,7.276,25.922,15.462,37.291,14.553h29.1v20.465l-5.457,38.655,5.457,35.927-29.1-6.367-77.765-50.934-25.467-21.829-20.01-13.188Z" transform="translate(-4473.018 1384.137)" fill="#d8827b"/>
      <path id="Schnittmenge_21" data-name="Schnittmenge 21" d="M123.241,98.091,45.477,47.156,20.009,25.327,0,12.138v-10H11.823L14.223,0l3.967,4.408L55.482,24.417,84.587,57.16l62.427,10.49-.124.88,5.456,35.926Z" transform="translate(0 27.881)" fill="#9e5c56"/>
    </g>
    <g id="Head" transform="translate(1073.558 178.854)">
      <path id="Pfad_126" data-name="Pfad 126" d="M4602.077-1726.292l-27.24-6.822-10.46-30.015-1.819-30.015-10.914-9.1-15.917-36.836,8.64-15.917-8.64-19.555s-1.818-22.284,0-22.739,15.917-23.648,15.917-23.648l23.193-10.914,11.369-26.831,23.194-10.46,20.919-11.824,20.01,5.457,32.744-8.641,57.755,21.829,45.022,25.012,8.641,26.377,9.551,32.743v27.286l18.19-8.641,6.367,12.734-6.367,17.281,14.1,21.829-5,9.55-5.457,31.379s-19.1,23.193-21.829,24.1-13.644,19.1-13.644,19.1l-28.65,10.914-35.018,3.183Z" transform="translate(-4534.919 1984.146)" fill="#2a1010"/>
      <path id="Schnittmenge_20" data-name="Schnittmenge 20" d="M57.143,227.854,29.9,221.033l-10.46-30.015L17.625,161l-10.914-9.1L0,136.378c6.8-13.133,11.258-21.762,11.258-21.762L21.718,50.95,36.27,21.844,55.37,27.3l19.556-5.458V7.291l13.643,5S90.387.47,92.661.015s11.369,9.55,11.369,9.55L138.139.015l-3.184,16.827,34.562,21.374s19.1,32.743,20.01,34.563,10.459,41.838,10.459,41.838H232.73l8.186,16.372,22.284-2.274s7.163-5.053,16.863-11.6l-2.765,7.5,14.1,21.829-5,9.55-5.458,31.379s-19.1,23.193-21.829,24.1-13.643,19.1-13.643,19.1L216.813,241.5,181.8,244.681Z" transform="translate(10.015 30)" fill="#1a0505"/>
      <path id="Pfad_111" data-name="Pfad 111" d="M4626.8-1928.778l-18.132,9.55-15.462,4.093-11.824,20.465-4.548,20.919-3.183,24.557,3.183,20.01-5,15.007-1.819,16.372,3.638,16.372,5.457,18.646,5,17.281,2.274,14.1,6.822,13.643,11.824,11.824h18.19l12.734,1.819,6.821,10.46,5.912,15.462,4.093,15.462-1.819,14.1-2.274,9.1,9.1,5,22.283,3.638,14.553-3.638,28.2-8.641,31.834-11.369,20.919-8.186,13.643,2.274-34.562-30.469-15.462-26.831-10.915-27.741v-31.379l9.1-1.819,12.734-12.734,10.914-6.367-2.729-10.46-15.007-2.728-15.007-3.183-5.457-22.738-2.274-17.736-12.278-34.562-13.644-9.55-19.1-9.55-14.553-13.643-18.191-6.821Z" transform="translate(-4532.828 1987.446)" fill="#d8827b"/>
      <path id="Schnittmenge_16" data-name="Schnittmenge 16" d="M5.806,32.913,1.144,27.733,0,20.542l1.458-5.276V7.452L7.048,2.277,14.086,0,27.332,2.277l3.314,10.35L27.332,26.5l-.621-1.982v3.016l-8.692,5.382ZM8.289,9.522,7.048,17.388,5.1,19.425,20.295,20.7l4.874-1.108-2.183-6.964L16.57,7.452Z" transform="translate(42.831 130.355)" fill="#9e5c56"/>
      <path id="Pfad_107" data-name="Pfad 107" d="M4628.777-1843.715l-5.175-10.619,9.521-13.041h24.84l13.869,8.073,5.175,4.968-10.557-1.449-8.487-3.519s-10.764-1.656-11.8-1.863-8.073,3.519-8.073,3.519l3.105,6.831-1.035,7.1,20.907-3.581,9.728,3.581-5.381,6.769-15.111,4.14-13.248-4.14Z" transform="translate(-4529.633 1991.105)" fill="#9e5c56"/>
      <path id="Pfad_109" data-name="Pfad 109" d="M4593.322-1801.675l6.209-5.382,3.934,3.312,3.726-1.242,4.14-4.347h7.245l5.8,2.277v-7.659l-7.037-7.038,4.967-15.732,9.936,30.428-4.968,8.694-9.935,1.656-8.9,4.968-8.9-1.863Z" transform="translate(-4531.438 1992.887)" fill="#9e5c56"/>
      <path id="Schnittmenge_15" data-name="Schnittmenge 15" d="M56.66,183.367l-9.1-5,2.273-9.095,1.82-14.1-4.093-15.463-5.913-15.462-6.821-10.459L22.1,111.968H3.907L0,108.061l4.081-8.967,22.389,4.548L57.6,96.3l32.884-19.24,12.593-11.545,9.445-36.031L126.253,0l.9,3.733,4.137.878L125.47,51.869l-7,31.134L97.134,123.232s-3.149,31.834-3.149,33.233c0,.8,1.019,14.5,1.9,26.17l-2.387.732L78.944,187Z" transform="translate(68.292 169.537)" fill="#9e5c56"/>
      <path id="Pfad_104" data-name="Pfad 104" d="M4582.69-1837.749h6.491l7.1-3.307-6.492-4.042H4583.3Z" transform="translate(-4532.072 1992.433)" fill="#fff"/>
      <path id="Pfad_105" data-name="Pfad 105" d="M4635.979-1843.9l7.961,1.837,7.839-.613,12.125-3.552-9.8-3.674-13.84-.98-2.94,3.552Z" transform="translate(-4528.896 1992.089)" fill="#fff"/>
      <path id="Pfad_97" data-name="Pfad 97" d="M4624.021-1862.009l4.547-8.046,25.188-9.795,9.445,1.749,11.194,6.3,4.9,9.8-8.046-5.947-8.046-3.848-9.445-2.1-9.1,3.848-2.448,5.947-9.445,2.1Z" transform="translate(-4529.609 1990.362)" fill="#211111"/>
      <path id="Pfad_99" data-name="Pfad 99" d="M4574-1867.738l5.37-2.827,6.5,1.13,6.5,3.109,3.392,5.559-.565,4.334h-5.276l-4.429-5.559-6.124-2.355-3.863,1.79-4.428,4.146-3.015,5.559v-11.023Z" transform="translate(-4532.943 1990.915)" fill="#211111"/>
      <path id="Pfad_100" data-name="Pfad 100" d="M4632.512-1854.461l4.287,1.837,8.083-.98,10.289.98s8.452,3.43,9.309,4.532,2.817,4.042,2.817,4.042l-6.614-2.2-7.594-1.837h-2.939l.857,3.062-2.695,4.164h-4.777l-1.96-2.2-.49-5.022-3.8,1.837-1.47,3.185,1.47-5.879Z" transform="translate(-4529.103 1991.875)"/>
      <path id="Vereinigungsmenge_4" data-name="Vereinigungsmenge 4" d="M14.262,12.359H8.879V7.594H0L6.917,5.855l.675-1.2L10.043.98,17.391,0V.341l6.827,3.676L26.64,9.4,17.222,5.362v7Z" transform="translate(38.494 143.415)"/>
      <path id="Pfad_103" data-name="Pfad 103" d="M4679.534-1853.848l-2.031,3.44,2.031,2.708,1.58-1.354,1.58-2.934Z" transform="translate(-4524.302 1995.09)" fill="#211111"/>
      <path id="Pfad_114" data-name="Pfad 114" d="M4590.636-1767.328l1.433-7.006,4.936-7.484,7.324-1.752h7.325l12.42.8s8.916,3.822,9.713,4.618,12.9,6.847,12.9,6.847l-6.846,4.936-8.28,6.528-10.032,3.981-11.624,3.5-10.827-1.911-7.006-6.528Z" transform="translate(-4531.599 1996.1)" fill="#670806"/>
      <path id="Pfad_116" data-name="Pfad 116" d="M4594.243-1768.484l10.031,4.3h12.738l12.579-4.3,7.007-3.662-7.007-2.707-12.579.955-9.395.8-13.375,2.707Z" transform="translate(-4531.383 1996.619)" fill="#480100"/>
      <path id="Pfad_115" data-name="Pfad 115" d="M4598.3-1770.792l5.255-3.662,10.19-1.752,11.623,1.752-3.024,3.662-8.6,1.751h-10.19Z" transform="translate(-4531.141 1996.539)" fill="#c8a1a1"/>
    </g>
  </g>
</svg>
