<svg xmlns="http://www.w3.org/2000/svg" width="570" height="570" viewBox="0 0 570 570">
  <g id="Gruppe_17" data-name="Gruppe 17" transform="translate(-677 -222)">
    <circle id="Ellipse_5" data-name="Ellipse 5" cx="285" cy="285" r="285" transform="translate(677 222)" fill="#fff"/>
    <path id="Schnittmenge_36" data-name="Schnittmenge 36" d="M-3217.269,1545.69a284.109,284.109,0,0,1-188.266-102.942l14.058-3.937,21.631-26.719,21.631-20.358,44.533,10.179,120.875-15.269,59.8,5.089,36.9,20.358,50.894,15.269,30.537,11.451,16.635,29.49a283.554,283.554,0,0,1-164.688,77.389Z" transform="translate(4147 -756)" fill="#2a2a28"/>
    <path id="Schnittmenge_37" data-name="Schnittmenge 37" d="M-3369.14,1479.878l-25.591-24.643q-5.579-6.083-10.805-12.487l14.059-3.936,15.45-19.085,29.082,77.215Q-3358.473,1488.947-3369.14,1479.878Z" transform="translate(4147 -756)"/>
    <path id="Schnittmenge_38" data-name="Schnittmenge 38" d="M-3148.455,1436.267l61.073,21.63,30.536,29.264-30.536-50.894,50.894,57.256-19.434,23.078c-.448.228-.892.453-1.341.679l-30.119-30.12-37.039,53.875q-2.972.645-5.967,1.227Z" transform="translate(4147 -756)"/>
    <path id="Pfad_171" data-name="Pfad 171" d="M4318.214-517.755l-25.447,73.406v42.086l7.83,31.32,17.617,27.4s14.681,19.575,17.617,20.554,191.834-161.493,191.834-161.493l22.511,15.66h16.639l-11.745-15.66,11.745-29.362v-49.916l-16.639-59.7-16.639-29.362-17.617-28.384-25.447-19.575-39.15-12.724H4383.79l-22.511,12.724-4.894,14.681-25.447,16.639-12.724,28.384-6.851,35.235-4.894,36.213Z" transform="translate(-3470 978)" fill="#ae9378"/>
    <path id="Schnittmenge_30" data-name="Schnittmenge 30" d="M-3389.743,1030.441l-23.477-13.147,6.838-4.471,4.894-14.681,4.876-2.756c1.757,3.779,2.954,6.671,2.954,6.671l19.575,14.681h22.511l-11.745,13.7Z" transform="translate(4292.767 -720.922)" fill="#9f8264"/>
    <path id="Schnittmenge_29" data-name="Schnittmenge 29" d="M-3451.4,1085.662l6.851-35.235,12.724-28.383,5.986-3.914,4.78,29.362,33.278-9.787-28.384,25.447-27.4,31.32-10.1,7.973Z" transform="translate(4292.767 -713.504)" fill="#9f8264"/>
    <path id="Schnittmenge_32" data-name="Schnittmenge 32" d="M-3283.06,1010.3l26.058-7.812,10.155,7.812,16.6,26.739Z" transform="translate(4292.767 -713.504)" fill="#9f8264"/>
    <path id="Schnittmenge_33" data-name="Schnittmenge 33" d="M-3297.741,1105.237l53.341-47.958,28.873,43.064,6.852,73.406v48.938h-3.915l-22.511-15.66s-10.572,9.092-26.752,22.963Z" transform="translate(4292.767 -713.504)" fill="#9f8264"/>
    <path id="Schnittmenge_31" data-name="Schnittmenge 31" d="M-3386.806,1347.965l-17.617-27.4-7.83-31.32v-42.086l19.464-56.145c4.274-2.292,10.877-6.495,10.877-6.495l-13.7,47.959-5.873,31.319,12.724,25.448,22.511,57.746-3,21.509C-3372.335,1367.262-3386.806,1347.965-3386.806,1347.965Z" transform="translate(4235.021 -713.504)" fill="#9f8264"/>
    <path id="Schnittmenge_35" data-name="Schnittmenge 35" d="M-3229.687,1544.01l-14.244-56.144-31.853-26.061-38.223-55.6-9.846-6.949,29.536-17.375,13.9-25.482,10.424-31.853v-37.065l-5.791-23.485h-11.583l-11-15.317-6.95-25.482-8.687-22.586,4.054-15.058,11.583-5.212,14.478,11.583h17.953l14.478-11.583,23.745-52.7,23.166-28.378,30.694-7.529,6.95-8.107,28.957,13.32,44.014,49.226,6.37,5.792,9.267,23.745,8.687,16.216-4.055,16.795,4.055,27.219-4.055,33.591-13.9,26.06-8.687,25.483-17.374,22.007-11.583,13.321-12.741,16.215-9.845,3.475,3.475,23.166,6.37,2.9,24.324,57.334,4.633,18.533-19.151,63.8A285.9,285.9,0,0,1-3185,1547.5,286.741,286.741,0,0,1-3229.687,1544.01Z" transform="translate(4147 -756)" fill="#e6bdb2"/>
    <path id="Schnittmenge_28" data-name="Schnittmenge 28" d="M-3392.975,1266.411l-23.165-57.45v-27.1l-5.792-23.485h-1.747l6.959-8.947-11-37.644-2.317,17.953-16.216-17.953,9.267-9.266-9.267-6.95s-3.474,14.479-3.474,16.216-5.213-16.216-5.213-16.216v-13.9l17.954,9.845,15.057,16.795,4.305-22.007h2.708l18.469,47.49,20.269,19.111,15.058,27.8-26.64-5.213V1191.7l17.953,34.169,46.331,40.54h28.378l16.323-6.192-5.32,6.77-9.845,3.475,2.326,15.513-3.485,3.02-45.173,4.633Z" transform="translate(4293.147 -650.372)" fill="#c8a496"/>
    <path id="Pfad_158" data-name="Pfad 158" d="M4458.2-546.706l15.058,13.9,3.475,32.432v27.8l4.633,16.216h14.479l5.212,2.317-12.741,5.791h-15.058l-24.324-5.791-5.792-18.532,15.058-18.532v-27.8l-22.586-16.216L4417.083-552.5Z" transform="translate(-3474 978)" fill="#c8a496"/>
    <path id="Pfad_159" data-name="Pfad 159" d="M4511.482-546.706,4489-536.281l-6.37,25.482,28.849-12.162,11-23.745Z" transform="translate(-3462 978)" fill="#c8a496"/>
    <path id="Pfad_167" data-name="Pfad 167" d="M4456.464-523.54l-31.976,3.43-16.019-8.111,4.461-6.691h25.144Z" transform="translate(-3470 978)" fill="#fff"/>
    <path id="Pfad_168" data-name="Pfad 168" d="M4532.16-523.963l-17.438,2.433-20.48-2.433,13.991-9.328H4520.4l11.761,3.65Z" transform="translate(-3470 978)" fill="#fff"/>
    <path id="Pfad_163" data-name="Pfad 163" d="M4416.174-533.088l-1.014,6.286,4.867,5.88,7.1,1.217,6.895-5.475v-9.733Z" transform="translate(-3470 978)" fill="#678583"/>
    <path id="Pfad_164" data-name="Pfad 164" d="M4505.6-532.277l-1.419,6.894,2.433,3.853,6.894,1.825,5.88-3.042,1.825-5.88v-4.867Z" transform="translate(-3470 978)" fill="#678583"/>
    <path id="Pfad_165" data-name="Pfad 165" d="M4419.824-531.466V-527l3.853,2.231,4.258-2.231v-5.272l-4.258-3.65Z" transform="translate(-3470 978)"/>
    <path id="Pfad_166" data-name="Pfad 166" d="M4509.044-530.49v3.08l2.839,3.447,3.042-2.636,1.419-3.891L4513.1-533.9Z" transform="translate(-3470 978)"/>
    <path id="Pfad_161" data-name="Pfad 161" d="M4397.971-532.807l14.479-4.633h25.482l18.532,13.9-18.532-9.266H4419.4l-11.583,5.791Z" transform="translate(-3470 978)"/>
    <path id="Pfad_162" data-name="Pfad 162" d="M4493.025-523.54l13.586-10.359,14.6-1.419,13.383,4.867h2.839l-5.678,6.083-5.88-4.461-7.908-3.65-12.572,2.028Z" transform="translate(-3470 978)"/>
    <path id="Pfad_169" data-name="Pfad 169" d="M4388.8-540.794l13.18-13.383,24.333-4.055s20.886,1.825,21.494,1.825,17.641,9.328,17.641,9.328l-1.825,6.286-7.908,1.217-13.586-5.069-18.858-3.853-24.13,2.636Z" transform="translate(-3470 978)" fill="#926c64"/>
    <path id="Pfad_170" data-name="Pfad 170" d="M4502.964-541l3.65-6.083,9.328-4.461h13.991l11.558,1.419,8.922,12.166-3.042,6.083L4539.26-541l-7.706-3.447L4518.78-541Z" transform="translate(-3470 978)" fill="#926c64"/>
    <path id="Pfad_172" data-name="Pfad 172" d="M4401.408-638.14l-31.32,47.958-15.66,35.235L4314.3-544.181l31.32-30.341,18.6-40.128Z" transform="translate(-3470 978)" fill="#9f8264"/>
    <path id="Pfad_184" data-name="Pfad 184" d="M4424.06-433.5l19.875,3.084h19.875l11.309,2.741,10.281-2.741h11.651l8.91-3.084-5.483,7.882-9.938,15.421-10.28,5.483h-18.848l-17.477-5.483-17.477-15.421Z" transform="translate(-3470 978)" fill="#924b46"/>
    <path id="Pfad_185" data-name="Pfad 185" d="M4444.963-425.272h9.6l13.022,2.741h16.792L4483-419.1h-20.218Z" transform="translate(-3470 978)" fill="#c9c9c9"/>
    <path id="Pfad_191" data-name="Pfad 191" d="M4331.056-367.975l4.9,18.711L4353.33-331l18.265,10.246,20.047,9.8,26.284,7.128h24.5l16.038-11.583,9.8-15.592,7.128-11.583-3.564,17.374-9.8,16.929-19.6,11.137H4425.5l-24.947-6.682-24.948-7.128-18.71-12.028-17.819-14.7-10.692-16.038Z" transform="translate(-3470 978)" fill="#fff"/>
    <path id="Pfad_192" data-name="Pfad 192" d="M4322.591-341.691l8.464,31.63,13.81,17.374,15.592,25.838,20.938,18.265L4410.8-237h29.848l27.175-7.573,10.246-24.5,11.137-32.966-6.682-27.175,2.228,22.72-6.683,29.4-10.246,21.829-11.137,10.692-26.729,3.118-29.848-3.118-24.056-13.81-18.71-21.829-12.474-21.829-13.81-22.275-8.464-27.175,5.346-12.474-8.019,15.147Z" transform="translate(-3470 978)" fill="#fff"/>
    <g id="Ellipse_1" data-name="Ellipse 1" transform="translate(677 222)" fill="none" stroke="#2a2a28" stroke-width="20">
      <circle cx="285" cy="285" r="285" stroke="none"/>
      <circle cx="285" cy="285" r="275" fill="none"/>
    </g>
  </g>
</svg>
