<svg xmlns="http://www.w3.org/2000/svg" width="668.842" height="830.847" viewBox="0 0 668.842 830.847">
  <path id="Officer" d="M504.938,830.847H0l16.1-24.161V758.331l15.538-12.088v-39.72L42,652.986V618.447l12.087-34.539V525.192L42,494.108l24.173-72.532,43.165-22.451,75.971-27.631h29.351l8.2-18.98,3.023-18.138,3.023-18.746-14.242-13.906-8.73-16.326-6.65-30.233V245.49l-13.971-23.582-8.4-33.861-6.65-33.256-3.628-33.256,3.628-41.117,6.65-35.673,10.881-6.652h11.487l11.487-16.93L238.576,5.443,272.431,0l28.413,5.443,38.085,9.674L361.9,33.257,381.85,58.047l9.673,26,6.046,24.792v19.953l-6.046,26,12.7,5.442v17.536l-9.674,30.836-12.7,19.954-13.3,2.419v77.4l4.836,7.255,8.463,13.3,9.673,12.093L414.5,371.493l38.69,14.88,27.2,12.751L521.5,411.165l44.735,16.325,27.809,23.582,8.463,23.58v38.7l4.232,16.328.017.05,0,.012c1.213,3.437,7.29,20.667,7.838,22.308.58,1.74.024,31.959,0,33.245v.011l10.278,23.583v29.627l.036.084c1.175,2.788,11.494,27.3,12.054,29.545.5,2.007,11.831,36.506,16.678,51.246l.132.4.115.351,3.023,45.954c.042.314,4.266,31.475,6.045,33.256,1.387,1.386,4.576,22.486,5.884,31.493H543.627l-14.874-10.332L514.847,779.4l-9.909,51.448Z" transform="translate(0 0)" fill="#707070"/>
</svg>
