<svg xmlns="http://www.w3.org/2000/svg" width="653.574" height="822.907" viewBox="0 0 653.574 822.907">
  <g id="The_Log_Lady" data-name="The Log Lady" transform="translate(-81.165 -144.094)">
    <g id="Head">
      <path id="Vereinigungsmenge_1" data-name="Vereinigungsmenge 1" d="M-3469.566,2425.933l33.116-62.666-3.377-2.251-17.915-46.2v-43.375L-3470,2213.918l45.261-44.318,88.635-6.6,27.345,37.716,6.6,13.2v50.918l-12.258,32.06v17.916l-14.145,41.489-3.22,3.042,5.83,25.972-26.837,56.576-47.872,16.682Z" transform="translate(3788.687 -1956.577)" fill="#e8bca3"/>
      <path id="Pfad_33" data-name="Pfad 33" d="M3819.8-1910.373v13.2l19.279,2.9,11.682,3.3,8.127,12.7-19.809-7.111-17.523-1.524-14.983,17.777,6.349,28.189,14.984,28.189s-3.048,10.158-3.048,10.92-3.3,16-3.3,16l14.222,23.364,19.3,17.269,13.206,12.952h14.476l-23.872,5.333-3.81,9.142-3.047,11.428-51.3-25.9-17.777-93.457,14.476-106.662Z" transform="translate(-3470 2163)" fill="#7a6559"/>
      <path id="Pfad_34" data-name="Pfad 34" d="M3888.6-1882.591l19.3-9.4,20.063,1.778,14.476,14.222-20.062-4.317-23.618,1.524-10.158,5.333Z" transform="translate(-3470 2163)" fill="#7a6559"/>
      <path id="Pfad_35" data-name="Pfad 35" d="M3869.05-1865.829l-2.54,35.046-2.032,5.841,4.571,6.349-5.587,6.349-14.476-2.032,5.333-21.079Z" transform="translate(-3470 2163)" fill="#7a6559"/>
      <path id="Pfad_46" data-name="Pfad 46" d="M3819.74-1871.175l12.923-3.456h9.768l9.016,4.658,4.959,3.156-9.918,2.855-19.385.9-9.016-3.757v-4.358Z" transform="translate(-3470 2163)" fill="#fff"/>
      <path id="Pfad_47" data-name="Pfad 47" d="M3894.725-1870.724l4.658,4.057,14.125.9h11.12l6.161-3.607-8.716-7.363-8.565-1.5-11.571,2.855Z" transform="translate(-3470 2163)" fill="#fff"/>
      <path id="Pfad_37" data-name="Pfad 37" d="M3892.923-1869.639l10.92-9.142,16.761-1.778,11.174,5.079,2.54,8.127-9.4-2.286-5.841-4.317h-4.825l2.032,3.047v5.333l-7.619,1.524-7.111-3.3,1.016-5.079,1.27-3.047Z" transform="translate(-3470 2163)" fill="#130a1b"/>
      <path id="Pfad_38" data-name="Pfad 38" d="M3813.942-1869.639l16.761-6.857s11.936-2.032,13.206-2.032,10.158,5.587,10.158,5.587l4.063,7.619-11.682-6.1-4.317-1.524,2.793,6.095-5.079,4.825-7.111-1.524-2.032-6.1,2.032-3.3Z" transform="translate(-3470 2163)" fill="#130a1b"/>
      <path id="Pfad_39" data-name="Pfad 39" d="M3840.607-1790.4l22.094-3.809,10.158,3.809,7.619-3.809,28.443,3.809-19.047,14.222-14.983,2.54h-14.476Z" transform="translate(-3470 2163)" fill="#92283e"/>
      <path id="Pfad_43" data-name="Pfad 43" d="M3818.066-1897.445l22.318-8.584,14.163-3v-8.155l16.309,6.009h13.734l14.163-7.725,15.451,7.725,14.593-6.009,3,8.155,17.168-5.15,7.3,3-2.146,17.168,3.863,24.893-6.867,30.043-5.15,9.871-4.292,10.73v21.03l-6.867,18.884-6.009,9.871v8.584l12.876,11.159,20.172-9.442H3987.6l20.6-32.618,14.163-23.605-17.168-45.065,3-42.919-17.167-27.9-39.915-46.352-29.614-23.605-34.764-18.455-27.039,9.442-5.15,6.867h-21.03l-37.769,25.751-15.022,33.047-12.876,13.3-18.884-3.863,6.009,20.172,5.15,23.605-11.159,36.052-7.3,21.889,3,26.181,10.3,13.3v24.464l10.73,19.743,16.739,3,10.3-5.579,13.3,2.575s8.155,14.163,9.442,14.163,0-33.906,0-33.906l-6.009-22.318-3.433-27.468v-22.747L3803.9-1877.7Z" transform="translate(-3470 2163)" fill="#53432e"/>
      <path id="Schnittmenge_2" data-name="Schnittmenge 2" d="M-3380.353,2446.65l-13.3-2.575-10.3,5.58-16.738-3.005-10.73-19.742v-24.464l-10.3-13.3-3-26.181,7.3-21.888,11.158-36.052-5.15-23.605-6.008-20.172,18.884,3.863,12.875-13.305,15.022-33.047,37.769-25.752h21.03l5.151-6.867,12.788-4.466,29.227,13.136-11.159,11.159,22.318,11.158-16.18,13.949-2.79,14.507h-17.854l-20.086-10.044v17.855l-25.107-17.855-20.644,23.992,2.79,23.991,13.887,11.242-8.821,3.393-14.163,19.742,2.146,36.481v22.747l3.434,27.468,6.009,22.318s1.287,33.906,0,33.906S-3380.353,2446.65-3380.353,2446.65Z" transform="translate(3716.403 -2032.596)" fill="#392d1e"/>
      <path id="Ausschluss_2" data-name="Ausschluss 2" d="M-3336.673,2233.094h-26.159l-10.92-10.668-4.571-14.729-4.317-13.2-7.617-1.017h-6.6V2214.3l-8.888,10.157-12.7,6.095-12.7,1.271-16-1.271-7.873-8.127-5.586-13.2-1.016-15.746-8.38-4.825,8.38-13.459,6.6,3.555,12.445-3.555,17.013-1.777,13.46,4.063,13.968,7.62,5.587-1.271,7.619,1.271,7.619,2.538,6.094-7.617,14.983-2.541,14.223,1.27,11.173,2.541,11.683,3.81,19.3-22.1-16.507,31.492,2.285,9.9-2.285,9.905-4.063,8.125-8.127,6.6C-3328.619,2229.07-3335.923,2233.094-3336.673,2233.094Zm-105.646-51.3-10.667,6.1-2.031,11.682,2.031,13.967,8.888,10.667,10.667,3.556,12.443-1.779,12.191-7.365,5.84-15.492-1.777-9.4-6.858-8.38-12.952-3.557Zm88.123,2.032-13.205,1.524-3.556,5.08-3.555,11.682,3.555,13.713,8.127,8.888,8.635,2.54h19.047c.086-.058,8.635-5.854,8.635-6.6s7.291-14.339,7.365-14.476l-3.555-13.714-10.667-7.111-20.824-1.524Z" transform="translate(3792.102 -1895.543)" fill="#6b1d2d"/>
      <path id="Pfad_48" data-name="Pfad 48" d="M424.725,425.557l30.982-23.992-10.6,16.738Z" fill="#7a6559"/>
      <path id="Pfad_150" data-name="Pfad 150" d="M477.224,243.769l9.9,20.8v16.837l-4.622,17.168,4.622,19.149-9.9,9.244v22.45l15.847-1.651,15.517-57.776-5.282-49.522-26.082,1.651Z" fill="#53432e"/>
    </g>
    <g id="Body">
      <path id="Pfad_60" data-name="Pfad 60" d="M3802.831-1746.3l26.4,23.573,29.231,15.087h21.687l29.231-4.715,16.03-16.973,7.543-31.117s22.63,53.747,22.63,56.576-52.8,96.179-52.8,96.179l-106.551-44.318Z" transform="translate(-3470 2163)" fill="#30648c"/>
      <path id="Differenzmenge_4" data-name="Differenzmenge 4" d="M-2994,2804.648h-302.85l39.172-511.55,55.161,33.1h26.969l47.806-33.1,18.387-33.1,71.1,142.194c.07.669,7.206,69.248,16.37,154.418,8.258,76.745,19.8,182.074,27.888,248.035Z" transform="translate(3584 -1837.647)" fill="#9e8b44"/>
      <path id="Pfad_55" data-name="Pfad 55" d="M3941.444-1740.067v43.52l-4.352,49.322-8.7,39.168v24.661l20.309,26.837,13.056,14.507,4.352,6.528v20.309l-4.352,17.408-7.253,15.957-17.408-2.9-17.408-2.9-21.76,9.429,208.9,135.637,31.189,7.979,58.026-3.627,8.7-73.258-66.73-165.375-31.189-55.125-37.717-41.344-42.794-9.429-28.288-5.8-31.915-24.661-17.408-26.837Z" transform="translate(-3470 2163)" fill="#532a3c"/>
      <path id="Pfad_56" data-name="Pfad 56" d="M3795.752-1752.4l-14.606,22.485-20.309,6.528-10.88,16.683-17.408,10.155-26.112,6.528-21.035,5.077-7.979,18.133,42.069,31.189,23.936,21.76,118.954,107.349-38.442-174.8Z" transform="translate(-3470 2163)" fill="#532a3c"/>
      <path id="Differenzmenge_6" data-name="Differenzmenge 6" d="M-3194.647,2673.486h-168.547v-51.871l4.9-58.839-4.9-34.323h-55.161L-3474.742,2488-3487,2463.485v-58.838l23.291-40.452L-3418.355,2260l139.309,125.486,20.713-14.859,94.422,15.517-9.744,24.453,16.4,6.307-4.9,34.323v52.709l-19.613,42.9-7.355,74.775-5.518,51.871Z" transform="translate(3568.165 -1706.486)" fill="#532a3c"/>
      <path id="Differenzmenge_7" data-name="Differenzmenge 7" d="M-2918.363,2371.937h-138.28v-94.775L-2953.674,2260c2.406,9.622,40.071,109.317,40.451,110.323l-5.14,1.614Z" transform="translate(3584 -1404.937)" fill="#532a3c"/>
      <path id="Differenzmenge_5" data-name="Differenzmenge 5" d="M-3289.022,2673.485h-74.171v-51.872l4.9-58.838-4.9-34.323h-55.161L-3474.741,2488-3487,2463.484v-58.838l23.29-40.451L-3418.355,2260l48.2,43.417L-3406,2364.571l-43.376,61.291.012.073c.867,5.309,8.475,51.946,8.475,54.616,0,1.461,25.382,8.818,46.675,14.733,23.052,6.4,46.441,12.55,46.675,12.612l99.951-9.429,36.774,22.631,33,8.486-74.492,12.258-24.516,17.916-.047.239c-1.574,7.863-9.469,47.262-10.324,50.679-.928,3.712-.01,44.846,0,45.261l-1.828,17.548Z" transform="translate(3568.165 -1706.485)" fill="#341b26"/>
      <path id="Schnittmenge_5" data-name="Schnittmenge 5" d="M-3374.8,2327.888l-36.115-111.351,13.443-7.842,7.967-12.215,18.454,134.792Z" transform="translate(3677.424 -1752.398)" fill="#341b26"/>
      <path id="Pfad_63" data-name="Pfad 63" d="M3947.1-1608.636l32.06,16.03,14.144,26.4h-17.916l-37.717-21.687Z" transform="translate(-3470 2163)" fill="#341b26"/>
      <path id="Pfad_64" data-name="Pfad 64" d="M4057.421-1566.2v58.462l25.459,8.486Z" transform="translate(-3470 2163)" fill="#341b26"/>
      <path id="Vereinigungsmenge_3" data-name="Vereinigungsmenge 3" d="M-3351.328,2241.839s1-.042,2.6-.1L-3470,2163h31.118l234.789,124.466-18.022,15.878-11.713.732-24.95-6.383-.439,4.562-30.044,14.2Z" transform="translate(3901.836 -1475.683)" fill="#341b26"/>
    </g>
    <g id="The_Log" data-name="The Log">
      <path id="Differenzmenge_2" data-name="Differenzmenge 2" d="M-3012.775,2642.291h0l-60.065-31.871-78.451-77.226-38.943-35.888,11.492-10.642,6.438-59.228-6.438-18.026-11.587-11.588-84.121-15.88-51.215,2.377-27.884-5.577-12.258-26.968-29.419-26.968-39.226-41.677L-3470,2252.484l24.516-51.485,29.419-26.968,20.839-11.032,52.709,26.968,95.613,80.9,68.645,53.935,66.193,60.064,47.806,42.9,90.71,74.774,40.451,13.484-7.355,24.516-24.516,46.581-24.516,33.1-23.29,22.065Z" transform="translate(3583.028 -1694.063)" fill="#5a443e"/>
      <path id="Schnittmenge_13" data-name="Schnittmenge 13" d="M-3321.678,2377.606l-29.419-26.968-39.226-41.677-35.548-30.645,24.516-51.483,29.419-26.968,20.839-11.033,4.451,2.277-15.483,21.013-22.064,28.194-14.709,17.161,46.58,29.419,22.064,30.645,30.645,31.871,12.258,13.484h-20.839l-5.547,32.172Z" transform="translate(3538.899 -1719.896)" fill="#342723"/>
      <path id="Pfad_82" data-name="Pfad 82" d="M3721.544-1511.418l-9.724-2.3-6.933,6.273v12.546l6.933,5.612,12.875-7.593Z" transform="translate(-3470 2163)" fill="#342723"/>
      <path id="Differenzmenge_1" data-name="Differenzmenge 1" d="M-3106.607,2423.35h0l-60.065-31.872-78.451-77.225-38.943-35.889,11.493-10.641,3.439-31.637,29.765.846,165.555,151.526-9.5,12.827-23.29,22.065Z" transform="translate(3676.86 -1475.122)" fill="#342723"/>
      <path id="Pfad_90" data-name="Pfad 90" d="M3649.523-1619.159l34.035,22.876v13.391l18.97,13.391s21.2,5.579,21.76,7.253,8.369,28.455,8.369,28.455l12.833,13.391s21.2-.558,22.876,0,27.9,13.949,27.9,13.949l7.253,21.76,2.79-29.013-22.318-20.086h-27.339l-19.528-23.434-8.369-25.665-26.223-2.79-23.992-22.876Z" transform="translate(-3470 2163)" fill="#342723"/>
      <path id="Pfad_91" data-name="Pfad 91" d="M3712.571-1631.433l37.94,31.245,11.159,24.55v-17.854l-26.781-25.665Z" transform="translate(-3470 2163)" fill="#342723"/>
      <path id="Pfad_92" data-name="Pfad 92" d="M3877.165-1484.694l21.2,13.391s3.906,31.8,5.58,32.361,33.477,24.55,33.477,24.55l-16.18-34.593-11.717-28.455Z" transform="translate(-3470 2163)" fill="#342723"/>
      <path id="Pfad_93" data-name="Pfad 93" d="M3797.937-1557.708l31.245,16.662,6.7,17.3,25.666,13.949,22.318,13.391-36.266-27.339-11.717-10.6-3.348-11.717-15.623-7.253Z" transform="translate(-3470 2163)" fill="#342723"/>
      <path id="Schnittmenge_14" data-name="Schnittmenge 14" d="M-2962.728,2562.071l-23.434-53.562-45.193-10.6-35.15-30.129,35.15,21.2,26.223,5.021,35.15,14.507,14.507,26.781,11.957,11.082-11.376,21.615Z" transform="translate(3583.029 -1694.063)" fill="#342723"/>
    </g>
    <g id="Hand_1" data-name="Hand 1">
      <path id="Pfad_49" data-name="Pfad 49" d="M3966.141-1531.348l-32.618-18.026-58.37-44.636-8.155-3.863-33.477-23.176h-24.035l-37.339-12.876-9.013,4.292v4.721l9.013,9.013v6.867l15.021,15.022,9.013,5.15v6.009l22.318,22.318,12.447,11.159,11.159,3,5.15,10.3,17.6,18.884,27.468,18.884,25.322,11.159,21.459,1.717h18.329l6.994-15.88Z" transform="translate(-3470 2163)" fill="#e8bca3"/>
      <path id="Pfad_50" data-name="Pfad 50" d="M3795.752-1609.032l9.013,4.292,19.743,6.867,21.889,13.734-15.451-15.88-15.021-4.721Z" transform="translate(-3470 2163)" fill="#7a6559"/>
      <path id="Pfad_51" data-name="Pfad 51" d="M3828.8-1611.607l14.163,10.3,11.588,6.009-17.6-14.163Z" transform="translate(-3470 2163)" fill="#7a6559"/>
      <path id="Pfad_52" data-name="Pfad 52" d="M3821.075-1580.276l21.459,13.3-7.725-9.442-22.318-12.446Z" transform="translate(-3470 2163)" fill="#7a6559"/>
      <path id="Schnittmenge_3" data-name="Schnittmenge 3" d="M-3294.031,2311.5l-21.46-1.717-25.322-11.158-27.468-18.885-12.692-13.62,23.851,16.195,52.791,6.867,35.873,2.039-.251,4.4-2.538,16.177-8.456,3.636Z" transform="translate(3763.134 -1633.925)" fill="#7a6559"/>
    </g>
    <g id="Hand_2" data-name="Hand 2">
      <path id="Pfad_69" data-name="Pfad 69" d="M3873.859-1442.075H3903.9l32.618-9.442h25.751l13.3,5.579s15.021,8.155,16.309,8.584,16.739,15.88,16.739,15.88l9.871,8.155-4.721,7.725-17.6,2.575,15.021,18.026,27.9,28.756,19.743,20.172,6.438,15.88-6.438,4.721h-13.3l13.3,15.451v12.876l-8.584,8.155-15.88-6.009-10.73-10.3,6.438,12.876v11.588h-6.438l-12.447-2.146-43.348-40.344,3.863,8.155,10.3,18.026,4.721,10.73s2.575,5.15,0,5.579-15.022,0-15.022,0l-9.442-18.455-25.751-26.181-23.176-26.61-16.309-12.017-8.155-11.588-23.176,3.433v-30.9l5.15-31.331Z" transform="translate(-3470 2163)" fill="#e8bca3"/>
      <path id="Schnittmenge_9" data-name="Schnittmenge 9" d="M-3301.329,2329.525l-10.73-10.3,6.438,12.876v.237l-12.725-16.561-19.047-17.523-15.237-17.777-6.35-9.651,12.7,9.651,16.253,10.92,16.762,20.57,23.872,18.793,8.642.313-4.7,4.461Z" transform="translate(3865.705 -1451.517)" fill="#7a6559"/>
      <path id="Schnittmenge_10" data-name="Schnittmenge 10" d="M-3307.679,2287.333l-18.285-20.824-13.459-16.762,22.856,18.031,16,14.221,19.554,13.714,8.335.269-4.186,3.07h-13.3l5.455,6.336Z" transform="translate(3865.705 -1451.517)" fill="#7a6559"/>
      <path id="Schnittmenge_11" data-name="Schnittmenge 11" d="M-3339.932,2212.924l-22.856-22.6,13.206,4.063,14.476,13.459h13.836l-.659,1.079-17.6,2.575,1.794,2.153Z" transform="translate(3865.705 -1451.517)" fill="#7a6559"/>
      <path id="Schnittmenge_8" data-name="Schnittmenge 8" d="M-3312.059,2343.688l-12.446-2.146-43.349-40.344,3.863,8.155,6.479,11.337-13.911-17.1-13.714-23.618,15.238,8.381,12.7,15.237,19.808,22.1,17.269,15.745,9.173,2.262Z" transform="translate(3865.705 -1451.517)" fill="#7a6559"/>
      <path id="Schnittmenge_7" data-name="Schnittmenge 7" d="M-3329.744,2343.688l-4.488-8.771,15.847,4.73,4.223,3.827a1.394,1.394,0,0,1-.562.213,41.779,41.779,0,0,1-5.039.191C-3324.212,2343.879-3329.744,2343.688-3329.744,2343.688Zm-35.194-44.635-23.176-26.609-16.31-12.018-8.155-11.587-23.176,3.434v-16.025l16.041-.721,16.508,3.555,10.666,14.729,32.761,34.031,9.4,21.84,6.471,10.748Z" transform="translate(3831.458 -1451.517)" fill="#7a6559"/>
    </g>
  </g>
</svg>
