<svg xmlns="http://www.w3.org/2000/svg" width="1197.956" height="825.147" viewBox="0 0 1197.956 825.147">
  <g id="VS" transform="translate(-289.165 -254.854)">
    <g id="The_Log_Lady" data-name="The Log Lady" transform="translate(208 113)">
      <g id="Head">
        <path id="Vereinigungsmenge_1" data-name="Vereinigungsmenge 1" d="M-3469.566,2425.933l33.116-62.666-3.377-2.251-17.915-46.2v-43.375L-3470,2213.918l45.261-44.318,88.635-6.6,27.345,37.716,6.6,13.2v50.918l-12.258,32.06v17.916l-14.145,41.489-3.22,3.042,5.83,25.972-26.837,56.576-47.872,16.682Z" transform="translate(3788.687 -1956.577)" fill="#e8bca3"/>
        <path id="Pfad_33" data-name="Pfad 33" d="M3819.8-1910.373v13.2l19.279,2.9,11.682,3.3,8.127,12.7-19.809-7.111-17.523-1.524-14.983,17.777,6.349,28.189,14.984,28.189s-3.048,10.158-3.048,10.92-3.3,16-3.3,16l14.222,23.364,19.3,17.269,13.206,12.952h14.476l-23.872,5.333-3.81,9.142-3.047,11.428-51.3-25.9-17.777-93.457,14.476-106.662Z" transform="translate(-3470 2163)" fill="#7a6559"/>
        <path id="Pfad_34" data-name="Pfad 34" d="M3888.6-1882.591l19.3-9.4,20.063,1.778,14.476,14.222-20.062-4.317-23.618,1.524-10.158,5.333Z" transform="translate(-3470 2163)" fill="#7a6559"/>
        <path id="Pfad_35" data-name="Pfad 35" d="M3869.05-1865.829l-2.54,35.046-2.032,5.841,4.571,6.349-5.587,6.349-14.476-2.032,5.333-21.079Z" transform="translate(-3470 2163)" fill="#7a6559"/>
        <path id="Pfad_46" data-name="Pfad 46" d="M3819.74-1871.175l12.923-3.456h9.768l9.016,4.658,4.959,3.156-9.918,2.855-19.385.9-9.016-3.757v-4.358Z" transform="translate(-3470 2163)" fill="#fff"/>
        <path id="Pfad_47" data-name="Pfad 47" d="M3894.725-1870.724l4.658,4.057,14.125.9h11.12l6.161-3.607-8.716-7.363-8.565-1.5-11.571,2.855Z" transform="translate(-3470 2163)" fill="#fff"/>
        <path id="Pfad_37" data-name="Pfad 37" d="M3892.923-1869.639l10.92-9.142,16.761-1.778,11.174,5.079,2.54,8.127-9.4-2.286-5.841-4.317h-4.825l2.032,3.047v5.333l-7.619,1.524-7.111-3.3,1.016-5.079,1.27-3.047Z" transform="translate(-3470 2163)" fill="#130a1b"/>
        <path id="Pfad_38" data-name="Pfad 38" d="M3813.942-1869.639l16.761-6.857s11.936-2.032,13.206-2.032,10.158,5.587,10.158,5.587l4.063,7.619-11.682-6.1-4.317-1.524,2.793,6.095-5.079,4.825-7.111-1.524-2.032-6.1,2.032-3.3Z" transform="translate(-3470 2163)" fill="#130a1b"/>
        <path id="Pfad_39" data-name="Pfad 39" d="M3840.607-1790.4l22.094-3.809,10.158,3.809,7.619-3.809,28.443,3.809-19.047,14.222-14.983,2.54h-14.476Z" transform="translate(-3470 2163)" fill="#92283e"/>
        <path id="Pfad_43" data-name="Pfad 43" d="M3818.066-1897.445l22.318-8.584,14.163-3v-8.155l16.309,6.009h13.734l14.163-7.725,15.451,7.725,14.593-6.009,3,8.155,17.168-5.15,7.3,3-2.146,17.168,3.863,24.893-6.867,30.043-5.15,9.871-4.292,10.73v21.03l-6.867,18.884-6.009,9.871v8.584l12.876,11.159,20.172-9.442H3987.6l20.6-32.618,14.163-23.605-17.168-45.065,3-42.919-17.167-27.9-39.915-46.352-29.614-23.605-34.764-18.455-27.039,9.442-5.15,6.867h-21.03l-37.769,25.751-15.022,33.047-12.876,13.3-18.884-3.863,6.009,20.172,5.15,23.605-11.159,36.052-7.3,21.889,3,26.181,10.3,13.3v24.464l10.73,19.743,16.739,3,10.3-5.579,13.3,2.575s8.155,14.163,9.442,14.163,0-33.906,0-33.906l-6.009-22.318-3.433-27.468v-22.747L3803.9-1877.7Z" transform="translate(-3470 2163)" fill="#53432e"/>
        <path id="Schnittmenge_2" data-name="Schnittmenge 2" d="M-3380.353,2446.65l-13.3-2.575-10.3,5.58-16.738-3.005-10.73-19.742v-24.464l-10.3-13.3-3-26.181,7.3-21.888,11.158-36.052-5.15-23.605-6.008-20.172,18.884,3.863,12.875-13.305,15.022-33.047,37.769-25.752h21.03l5.151-6.867,12.788-4.466,29.227,13.136-11.159,11.159,22.318,11.158-16.18,13.949-2.79,14.507h-17.854l-20.086-10.044v17.855l-25.107-17.855-20.644,23.992,2.79,23.991,13.887,11.242-8.821,3.393-14.163,19.742,2.146,36.481v22.747l3.434,27.468,6.009,22.318s1.287,33.906,0,33.906S-3380.353,2446.65-3380.353,2446.65Z" transform="translate(3716.403 -2032.596)" fill="#392d1e"/>
        <path id="Ausschluss_2" data-name="Ausschluss 2" d="M-3336.673,2233.094h-26.159l-10.92-10.668-4.571-14.729-4.317-13.2-7.617-1.017h-6.6V2214.3l-8.888,10.157-12.7,6.095-12.7,1.271-16-1.271-7.873-8.127-5.586-13.2-1.016-15.746-8.38-4.825,8.38-13.459,6.6,3.555,12.445-3.555,17.013-1.777,13.46,4.063,13.968,7.62,5.587-1.271,7.619,1.271,7.619,2.538,6.094-7.617,14.983-2.541,14.223,1.27,11.173,2.541,11.683,3.81,19.3-22.1-16.507,31.492,2.285,9.9-2.285,9.905-4.063,8.125-8.127,6.6C-3328.619,2229.07-3335.923,2233.094-3336.673,2233.094Zm-105.646-51.3-10.667,6.1-2.031,11.682,2.031,13.967,8.888,10.667,10.667,3.556,12.443-1.779,12.191-7.365,5.84-15.492-1.777-9.4-6.858-8.38-12.952-3.557Zm88.123,2.032-13.205,1.524-3.556,5.08-3.555,11.682,3.555,13.713,8.127,8.888,8.635,2.54h19.047c.086-.058,8.635-5.854,8.635-6.6s7.291-14.339,7.365-14.476l-3.555-13.714-10.667-7.111-20.824-1.524Z" transform="translate(3792.102 -1895.543)" fill="#6b1d2d"/>
        <path id="Pfad_48" data-name="Pfad 48" d="M424.725,425.557l30.982-23.992-10.6,16.738Z" fill="#7a6559"/>
        <path id="Pfad_150" data-name="Pfad 150" d="M477.224,243.769l9.9,20.8v16.837l-4.622,17.168,4.622,19.149-9.9,9.244v22.45l15.847-1.651,15.517-57.776-5.282-49.522-26.082,1.651Z" fill="#53432e"/>
      </g>
      <g id="Body">
        <path id="Pfad_60" data-name="Pfad 60" d="M3802.831-1746.3l26.4,23.573,29.231,15.087h21.687l29.231-4.715,16.03-16.973,7.543-31.117s22.63,53.747,22.63,56.576-52.8,96.179-52.8,96.179l-106.551-44.318Z" transform="translate(-3470 2163)" fill="#30648c"/>
        <path id="Differenzmenge_4" data-name="Differenzmenge 4" d="M-2994,2804.648h-302.85l39.172-511.55,55.161,33.1h26.969l47.806-33.1,18.387-33.1,71.1,142.194c.07.669,7.206,69.248,16.37,154.418,8.258,76.745,19.8,182.074,27.888,248.035Z" transform="translate(3584 -1837.647)" fill="#9e8b44"/>
        <path id="Pfad_55" data-name="Pfad 55" d="M3941.444-1740.067v43.52l-4.352,49.322-8.7,39.168v24.661l20.309,26.837,13.056,14.507,4.352,6.528v20.309l-4.352,17.408-7.253,15.957-17.408-2.9-17.408-2.9-21.76,9.429,208.9,135.637,31.189,7.979,58.026-3.627,8.7-73.258-66.73-165.375-31.189-55.125-37.717-41.344-42.794-9.429-28.288-5.8-31.915-24.661-17.408-26.837Z" transform="translate(-3470 2163)" fill="#532a3c"/>
        <path id="Pfad_56" data-name="Pfad 56" d="M3795.752-1752.4l-14.606,22.485-20.309,6.528-10.88,16.683-17.408,10.155-26.112,6.528-21.035,5.077-7.979,18.133,42.069,31.189,23.936,21.76,118.954,107.349-38.442-174.8Z" transform="translate(-3470 2163)" fill="#532a3c"/>
        <path id="Differenzmenge_6" data-name="Differenzmenge 6" d="M-3194.647,2673.486h-168.547v-51.871l4.9-58.839-4.9-34.323h-55.161L-3474.742,2488-3487,2463.485v-58.838l23.291-40.452L-3418.355,2260l139.309,125.486,20.713-14.859,94.422,15.517-9.744,24.453,16.4,6.307-4.9,34.323v52.709l-19.613,42.9-7.355,74.775-5.518,51.871Z" transform="translate(3568.165 -1706.486)" fill="#532a3c"/>
        <path id="Differenzmenge_7" data-name="Differenzmenge 7" d="M-2918.363,2371.937h-138.28v-94.775L-2953.674,2260c2.406,9.622,40.071,109.317,40.451,110.323l-5.14,1.614Z" transform="translate(3584 -1404.937)" fill="#532a3c"/>
        <path id="Differenzmenge_5" data-name="Differenzmenge 5" d="M-3289.022,2673.485h-74.171v-51.872l4.9-58.838-4.9-34.323h-55.161L-3474.741,2488-3487,2463.484v-58.838l23.29-40.451L-3418.355,2260l48.2,43.417L-3406,2364.571l-43.376,61.291.012.073c.867,5.309,8.475,51.946,8.475,54.616,0,1.461,25.382,8.818,46.675,14.733,23.052,6.4,46.441,12.55,46.675,12.612l99.951-9.429,36.774,22.631,33,8.486-74.492,12.258-24.516,17.916-.047.239c-1.574,7.863-9.469,47.262-10.324,50.679-.928,3.712-.01,44.846,0,45.261l-1.828,17.548Z" transform="translate(3568.165 -1706.485)" fill="#341b26"/>
        <path id="Schnittmenge_5" data-name="Schnittmenge 5" d="M-3374.8,2327.888l-36.115-111.351,13.443-7.842,7.967-12.215,18.454,134.792Z" transform="translate(3677.424 -1752.398)" fill="#341b26"/>
        <path id="Pfad_63" data-name="Pfad 63" d="M3947.1-1608.636l32.06,16.03,14.144,26.4h-17.916l-37.717-21.687Z" transform="translate(-3470 2163)" fill="#341b26"/>
        <path id="Pfad_64" data-name="Pfad 64" d="M4057.421-1566.2v58.462l25.459,8.486Z" transform="translate(-3470 2163)" fill="#341b26"/>
        <path id="Vereinigungsmenge_3" data-name="Vereinigungsmenge 3" d="M-3351.328,2241.839s1-.042,2.6-.1L-3470,2163h31.118l234.789,124.466-18.022,15.878-11.713.732-24.95-6.383-.439,4.562-30.044,14.2Z" transform="translate(3901.836 -1475.683)" fill="#341b26"/>
      </g>
      <g id="The_Log" data-name="The Log">
        <path id="Differenzmenge_2" data-name="Differenzmenge 2" d="M-3012.775,2642.291h0l-60.065-31.871-78.451-77.226-38.943-35.888,11.492-10.642,6.438-59.228-6.438-18.026-11.587-11.588-84.121-15.88-51.215,2.377-27.884-5.577-12.258-26.968-29.419-26.968-39.226-41.677L-3470,2252.484l24.516-51.485,29.419-26.968,20.839-11.032,52.709,26.968,95.613,80.9,68.645,53.935,66.193,60.064,47.806,42.9,90.71,74.774,40.451,13.484-7.355,24.516-24.516,46.581-24.516,33.1-23.29,22.065Z" transform="translate(3583.028 -1694.063)" fill="#5a443e"/>
        <path id="Schnittmenge_13" data-name="Schnittmenge 13" d="M-3321.678,2377.606l-29.419-26.968-39.226-41.677-35.548-30.645,24.516-51.483,29.419-26.968,20.839-11.033,4.451,2.277-15.483,21.013-22.064,28.194-14.709,17.161,46.58,29.419,22.064,30.645,30.645,31.871,12.258,13.484h-20.839l-5.547,32.172Z" transform="translate(3538.899 -1719.896)" fill="#342723"/>
        <path id="Pfad_82" data-name="Pfad 82" d="M3721.544-1511.418l-9.724-2.3-6.933,6.273v12.546l6.933,5.612,12.875-7.593Z" transform="translate(-3470 2163)" fill="#342723"/>
        <path id="Differenzmenge_1" data-name="Differenzmenge 1" d="M-3106.607,2423.35h0l-60.065-31.872-78.451-77.225-38.943-35.889,11.493-10.641,3.439-31.637,29.765.846,165.555,151.526-9.5,12.827-23.29,22.065Z" transform="translate(3676.86 -1475.122)" fill="#342723"/>
        <path id="Pfad_90" data-name="Pfad 90" d="M3649.523-1619.159l34.035,22.876v13.391l18.97,13.391s21.2,5.579,21.76,7.253,8.369,28.455,8.369,28.455l12.833,13.391s21.2-.558,22.876,0,27.9,13.949,27.9,13.949l7.253,21.76,2.79-29.013-22.318-20.086h-27.339l-19.528-23.434-8.369-25.665-26.223-2.79-23.992-22.876Z" transform="translate(-3470 2163)" fill="#342723"/>
        <path id="Pfad_91" data-name="Pfad 91" d="M3712.571-1631.433l37.94,31.245,11.159,24.55v-17.854l-26.781-25.665Z" transform="translate(-3470 2163)" fill="#342723"/>
        <path id="Pfad_92" data-name="Pfad 92" d="M3877.165-1484.694l21.2,13.391s3.906,31.8,5.58,32.361,33.477,24.55,33.477,24.55l-16.18-34.593-11.717-28.455Z" transform="translate(-3470 2163)" fill="#342723"/>
        <path id="Pfad_93" data-name="Pfad 93" d="M3797.937-1557.708l31.245,16.662,6.7,17.3,25.666,13.949,22.318,13.391-36.266-27.339-11.717-10.6-3.348-11.717-15.623-7.253Z" transform="translate(-3470 2163)" fill="#342723"/>
        <path id="Schnittmenge_14" data-name="Schnittmenge 14" d="M-2962.728,2562.071l-23.434-53.562-45.193-10.6-35.15-30.129,35.15,21.2,26.223,5.021,35.15,14.507,14.507,26.781,11.957,11.082-11.376,21.615Z" transform="translate(3583.029 -1694.063)" fill="#342723"/>
      </g>
      <g id="Hand_1" data-name="Hand 1">
        <path id="Pfad_49" data-name="Pfad 49" d="M3966.141-1531.348l-32.618-18.026-58.37-44.636-8.155-3.863-33.477-23.176h-24.035l-37.339-12.876-9.013,4.292v4.721l9.013,9.013v6.867l15.021,15.022,9.013,5.15v6.009l22.318,22.318,12.447,11.159,11.159,3,5.15,10.3,17.6,18.884,27.468,18.884,25.322,11.159,21.459,1.717h18.329l6.994-15.88Z" transform="translate(-3470 2163)" fill="#e8bca3"/>
        <path id="Pfad_50" data-name="Pfad 50" d="M3795.752-1609.032l9.013,4.292,19.743,6.867,21.889,13.734-15.451-15.88-15.021-4.721Z" transform="translate(-3470 2163)" fill="#7a6559"/>
        <path id="Pfad_51" data-name="Pfad 51" d="M3828.8-1611.607l14.163,10.3,11.588,6.009-17.6-14.163Z" transform="translate(-3470 2163)" fill="#7a6559"/>
        <path id="Pfad_52" data-name="Pfad 52" d="M3821.075-1580.276l21.459,13.3-7.725-9.442-22.318-12.446Z" transform="translate(-3470 2163)" fill="#7a6559"/>
        <path id="Schnittmenge_3" data-name="Schnittmenge 3" d="M-3294.031,2311.5l-21.46-1.717-25.322-11.158-27.468-18.885-12.692-13.62,23.851,16.195,52.791,6.867,35.873,2.039-.251,4.4-2.538,16.177-8.456,3.636Z" transform="translate(3763.134 -1633.925)" fill="#7a6559"/>
      </g>
      <g id="Hand_2" data-name="Hand 2">
        <path id="Pfad_69" data-name="Pfad 69" d="M3873.859-1442.075H3903.9l32.618-9.442h25.751l13.3,5.579s15.021,8.155,16.309,8.584,16.739,15.88,16.739,15.88l9.871,8.155-4.721,7.725-17.6,2.575,15.021,18.026,27.9,28.756,19.743,20.172,6.438,15.88-6.438,4.721h-13.3l13.3,15.451v12.876l-8.584,8.155-15.88-6.009-10.73-10.3,6.438,12.876v11.588h-6.438l-12.447-2.146-43.348-40.344,3.863,8.155,10.3,18.026,4.721,10.73s2.575,5.15,0,5.579-15.022,0-15.022,0l-9.442-18.455-25.751-26.181-23.176-26.61-16.309-12.017-8.155-11.588-23.176,3.433v-30.9l5.15-31.331Z" transform="translate(-3470 2163)" fill="#e8bca3"/>
        <path id="Schnittmenge_9" data-name="Schnittmenge 9" d="M-3301.329,2329.525l-10.73-10.3,6.438,12.876v.237l-12.725-16.561-19.047-17.523-15.237-17.777-6.35-9.651,12.7,9.651,16.253,10.92,16.762,20.57,23.872,18.793,8.642.313-4.7,4.461Z" transform="translate(3865.705 -1451.517)" fill="#7a6559"/>
        <path id="Schnittmenge_10" data-name="Schnittmenge 10" d="M-3307.679,2287.333l-18.285-20.824-13.459-16.762,22.856,18.031,16,14.221,19.554,13.714,8.335.269-4.186,3.07h-13.3l5.455,6.336Z" transform="translate(3865.705 -1451.517)" fill="#7a6559"/>
        <path id="Schnittmenge_11" data-name="Schnittmenge 11" d="M-3339.932,2212.924l-22.856-22.6,13.206,4.063,14.476,13.459h13.836l-.659,1.079-17.6,2.575,1.794,2.153Z" transform="translate(3865.705 -1451.517)" fill="#7a6559"/>
        <path id="Schnittmenge_8" data-name="Schnittmenge 8" d="M-3312.059,2343.688l-12.446-2.146-43.349-40.344,3.863,8.155,6.479,11.337-13.911-17.1-13.714-23.618,15.238,8.381,12.7,15.237,19.808,22.1,17.269,15.745,9.173,2.262Z" transform="translate(3865.705 -1451.517)" fill="#7a6559"/>
        <path id="Schnittmenge_7" data-name="Schnittmenge 7" d="M-3329.744,2343.688l-4.488-8.771,15.847,4.73,4.223,3.827a1.394,1.394,0,0,1-.562.213,41.779,41.779,0,0,1-5.039.191C-3324.212,2343.879-3329.744,2343.688-3329.744,2343.688Zm-35.194-44.635-23.176-26.609-16.31-12.018-8.155-11.587-23.176,3.434v-16.025l16.041-.721,16.508,3.555,10.666,14.729,32.761,34.031,9.4,21.84,6.471,10.748Z" transform="translate(3831.458 -1451.517)" fill="#7a6559"/>
      </g>
    </g>
    <g id="Audrey" transform="translate(70 76)">
      <g id="Body-2" data-name="Body" transform="translate(944.752 494.646)">
        <path id="Differenzmenge_8" data-name="Differenzmenge 8" d="M-3572.245,2146.74h-270.983c.735-6.351,1.253-11.017,1.259-11.062l4.73-44.931,17.144-41.975,21.875-49.66-39.019-5.321-37.837-4.138c-.1-.089-10.081-8.879-11.824-9.46s-7.626-22.832-7.685-23.056v-26.013l-6.5-9.459,2.956-17.736-6.5-18.918-2.365-13.6,8.867-8.277,34.29-24.83,18.919-11.824,7.686-12.415,5.912-14.78h15.372l2.955-15.372,14.189-15.962-2.957-31.925v-21.283l20.693-31.925,47.3-22.465,31.333,10.05,76.857,17.736H-3490.2l18.918,13.6L-3450,1724.2l8.868,38.428,6.5,27.787-6.5,42.566-16.553,30.151c-.338.8-8.291,19.562-8.869,21.875s-12.882,18.752-13.006,18.918l-14.189,41.385-16.553,26.6-3.547,32.516-24.239,30.742-10.05,13.6-13.6,33.107-17.145,4.139,4.729,30.15,1.91,30.572Z" transform="translate(3907 -1637.887)" fill="#281c10"/>
        <path id="Pfad_132" data-name="Pfad 132" d="M4680.136-1679.613l-58.528,13.6-36.654,3.547-15.963,20.1-27.786,34.881-11.233,30.742,11.233,23.057v30.742l8.868,31.925,18.918,8.277,37.837-11.233,36.063-13.006,33.107-2.365,4.138-24.83h16.554s14.189-21.283,15.962-21.874,13.6-14.189,13.6-17.145,13.006-27.786,13.006-27.786h19.509l34.881-6.5,34.88-6.5,8.868-14.189-20.1-26.013-41.383-31.925-49.661,2.956Z" transform="translate(-4406.407 1686.116)" fill="#7c4536"/>
        <path id="Schnittmenge_22" data-name="Schnittmenge 22" d="M20.1,172.684,11.233,140.76V110.017L0,86.961,11.233,56.219,39.019,21.337l15.963-20.1L67.763,0l-25.2,38.482S15.371,88.734,15.371,91.1s27.195,55.573,27.195,55.573h44.34L148.982,91.1s24.83,1.774,26.6,0S216.97,33.162,216.97,33.162H266.63l16.554-13.007V6.321l4.138,3.192,20.1,26.013-8.868,14.188-34.88,6.5-34.881,6.5h-19.51s-13.007,24.831-13.007,27.786-11.823,16.554-13.6,17.145-15.963,21.874-15.963,21.874H150.164l-4.138,24.831-33.108,2.365L76.856,169.728,39.019,180.961Z" transform="translate(123.564 22.411)" fill="#60382e"/>
        <path id="Schnittmenge_25" data-name="Schnittmenge 25" d="M138.878,267.766l-7.993-28.974L81.929,197.827,44.96,177.845H14.987s3,19.982,0,19.982S0,210.816,0,210.816V172.85L7.993,125.89,51.954,73.935l14.987-44.96L108.9,5,86.924,28.975,81.929,47.958,97.915,28.975,138.878,0,113.9,28.975,81.929,65.943,66.942,73.935V95.917H97.915L74.935,115.9H51.954L44.96,135.882l6.994,12.989-11.989,5L20.982,172.85l30.972-6.994,39.965,11.989,53.953,32.971L165.3,247.823l-13.729,17.413-5.2,7.029Z" transform="translate(217.336 132.051)" fill="#140f0a"/>
        <path id="Schnittmenge_24" data-name="Schnittmenge 24" d="M72.936,129.371l5-35.968,5-51.955-9.991,7.993L36.968,103.394,0,141.361,45.96,77.417S64.944,29.459,64.944,26.462C64.944,24.471,78.607,9.7,87.784,0l7.879,34.141,6.5,27.786-6.5,42.567L79.109,134.645s-3.173,7.478-5.73,13.735C73.358,139.9,72.936,129.371,72.936,129.371Z" transform="translate(370.203 90.603)" fill="#140f0a"/>
        <path id="Schnittmenge_26" data-name="Schnittmenge 26" d="M74.934,119.9l-34.97-18.983L22.979,76.933l34.97,23.979,16.985,5L53.952,76.933,22.979,39.965,0,0,44.96,43.962,80.929,76.933l15.511,29-.488,1.188-17.145,4.139,1.355,8.637Z" transform="translate(249.309 336.873)" fill="#140f0a"/>
        <path id="Pfad_139" data-name="Pfad 139" d="M4600.554-1305.015l42.963,31.972s3-18.983,5.995-18.983,38.966,30.973,38.966,30.973l17.984,28.975h-69.938l-35.969-40.964Z" transform="translate(-4402.201 1708.829)" fill="#140f0a"/>
        <path id="Schnittmenge_23" data-name="Schnittmenge 23" d="M57.347,164.9,19.51,160.765S9.46,151.9,7.686,151.305,0,128.249,0,128.249V112.138l10.093,17.749s30.972-19.983,33.969-22.98S74.037,82.927,74.037,82.927L59.049,129.887l6.994,11.989L83.029,102.91l5.995-44.961L66.043,0,96.017,52.954l12.988,34.969L96.017,110.9l6.994,43.961L85.782,168.78Z" transform="translate(12.415 191)" fill="#140f0a"/>
        <path id="Differenzmenge_9" data-name="Differenzmenge 9" d="M-3572.244,1795.252h-127.061l-45.233-60.31-69.588-51.207,10.3-23.38,31.621,14.639,139.877,76.857,44.577,11.528,4.61-28.437,14.6-7.686,2.06,4.278-12.407,2.994,4.73,30.15,1.911,30.573Z" transform="translate(3907 -1286.397)" fill="#140f0a"/>
      </g>
      <g id="Hand" transform="translate(919.955 408.357)">
        <path id="Pfad_117" data-name="Pfad 117" d="M4420.04-1446.833l-4.2-23.438v-93.752l-4.2-43.728v-34.633l-11.544-14.343-10.145-19.94v-11.194L4400.1-1712.7l9.1-6.647,6.647-9.8h9.445l4.9-6.3,10.145-1.749h11.194l5.947-6.647,12.594,3.148s5.946,9.1,7,11.544,7.7,13.993,7.7,13.993l4.9,20.29s-.35,13.993,0,15.042-24.488,41.979-24.488,41.979l-3.5,37.081,1.75,44.078,6.646,47.226,11.194,39.18v7.7h-26.236l-12.943,8.4Z" transform="translate(-4389.955 1768.966)" fill="#d8827b"/>
        <path id="Schnittmenge_18" data-name="Schnittmenge 18" d="M29.036,68.434,10.845,56.89,0,50.243,5.947,36.6l13.294,2.1L17.492,50.243l5.6,6.647,5.947,5.247,3.5-9.1L30.785,34.5l-5.6-7.7,7.346,5.248,2.8,18.191,8.046,2.8L46.527,45,48.276,26.8l5.247-6.3-5.247-8.745,13.643-1.75L63.844,0l5.382,1.345.389.972-4.2,12.594,4.2,9.445L75.562,36.6,61.919,53.041,46.527,68.434Z" transform="translate(8.395 26.314)" fill="#9e5c56"/>
        <path id="Schnittmenge_17" data-name="Schnittmenge 17" d="M19.3,241.681c-1.775-13.906-4.717-36.809-4.961-37.781-.35-1.4-10.495-38.13-10.495-38.13l-1.4-34.632,1.4-36.732L0,65.72,7,46.129,35.332,19.893,39.01,0l2.269,9.4s-.35,13.992,0,15.042S16.792,66.419,16.792,66.419l-3.5,37.081,1.749,44.078L21.688,194.8l11.195,39.18v7.7Z" transform="translate(58.42 64.71)" fill="#9e5c56"/>
        <path id="Schnittmenge_19" data-name="Schnittmenge 19" d="M7.354,9.137,0,0C12.13,4.851,22.747,9.137,22.747,9.137L15.4,18.583,7.354,19.656Z" transform="translate(14.334 117.443)" fill="#9e5c56"/>
        <path id="Pfad_124" data-name="Pfad 124" d="M4423.638-1767.552l-1.242,6.624,14.9,25.668,8.694,2.277,3.312-1.035-16.974-33.533Z" transform="translate(-4388.021 1767.552)" fill="#d9d9d9"/>
        <path id="Pfad_125" data-name="Pfad 125" d="M4450.013-1723.988l-1.862,4.968-2.9,3.519,7.038,12.834,4.14,5.175,5.8-1.035,1.656-4.14-5.381-11.592-5.382-9.729Z" transform="translate(-4386.66 1770.148)" fill="#d9d9d9"/>
      </g>
      <g id="Hand_2-2" data-name="Hand 2" transform="translate(1007.968 814.622)">
        <path id="Pfad_129" data-name="Pfad 129" d="M4473.018-1354.123h11.824l8.186-7.276,16.826-17.736,8.641-5,14.552,7.276,25.922,15.462,37.291,14.553h29.1v20.465l-5.457,38.655,5.457,35.927-29.1-6.367-77.765-50.934-25.467-21.829-20.01-13.188Z" transform="translate(-4473.018 1384.137)" fill="#d8827b"/>
        <path id="Schnittmenge_21" data-name="Schnittmenge 21" d="M123.241,98.091,45.477,47.156,20.009,25.327,0,12.138v-10H11.823L14.223,0l3.967,4.408L55.482,24.417,84.587,57.16l62.427,10.49-.124.88,5.456,35.926Z" transform="translate(0 27.881)" fill="#9e5c56"/>
      </g>
      <g id="Head-2" data-name="Head" transform="translate(1073.558 178.854)">
        <path id="Pfad_126" data-name="Pfad 126" d="M4602.077-1726.292l-27.24-6.822-10.46-30.015-1.819-30.015-10.914-9.1-15.917-36.836,8.64-15.917-8.64-19.555s-1.818-22.284,0-22.739,15.917-23.648,15.917-23.648l23.193-10.914,11.369-26.831,23.194-10.46,20.919-11.824,20.01,5.457,32.744-8.641,57.755,21.829,45.022,25.012,8.641,26.377,9.551,32.743v27.286l18.19-8.641,6.367,12.734-6.367,17.281,14.1,21.829-5,9.55-5.457,31.379s-19.1,23.193-21.829,24.1-13.644,19.1-13.644,19.1l-28.65,10.914-35.018,3.183Z" transform="translate(-4534.919 1984.146)" fill="#2a1010"/>
        <path id="Schnittmenge_20" data-name="Schnittmenge 20" d="M57.143,227.854,29.9,221.033l-10.46-30.015L17.625,161l-10.914-9.1L0,136.378c6.8-13.133,11.258-21.762,11.258-21.762L21.718,50.95,36.27,21.844,55.37,27.3l19.556-5.458V7.291l13.643,5S90.387.47,92.661.015s11.369,9.55,11.369,9.55L138.139.015l-3.184,16.827,34.562,21.374s19.1,32.743,20.01,34.563,10.459,41.838,10.459,41.838H232.73l8.186,16.372,22.284-2.274s7.163-5.053,16.863-11.6l-2.765,7.5,14.1,21.829-5,9.55-5.458,31.379s-19.1,23.193-21.829,24.1-13.643,19.1-13.643,19.1L216.813,241.5,181.8,244.681Z" transform="translate(10.015 30)" fill="#1a0505"/>
        <path id="Pfad_111" data-name="Pfad 111" d="M4626.8-1928.778l-18.132,9.55-15.462,4.093-11.824,20.465-4.548,20.919-3.183,24.557,3.183,20.01-5,15.007-1.819,16.372,3.638,16.372,5.457,18.646,5,17.281,2.274,14.1,6.822,13.643,11.824,11.824h18.19l12.734,1.819,6.821,10.46,5.912,15.462,4.093,15.462-1.819,14.1-2.274,9.1,9.1,5,22.283,3.638,14.553-3.638,28.2-8.641,31.834-11.369,20.919-8.186,13.643,2.274-34.562-30.469-15.462-26.831-10.915-27.741v-31.379l9.1-1.819,12.734-12.734,10.914-6.367-2.729-10.46-15.007-2.728-15.007-3.183-5.457-22.738-2.274-17.736-12.278-34.562-13.644-9.55-19.1-9.55-14.553-13.643-18.191-6.821Z" transform="translate(-4532.828 1987.446)" fill="#d8827b"/>
        <path id="Schnittmenge_16" data-name="Schnittmenge 16" d="M5.806,32.913,1.144,27.733,0,20.542l1.458-5.276V7.452L7.048,2.277,14.086,0,27.332,2.277l3.314,10.35L27.332,26.5l-.621-1.982v3.016l-8.692,5.382ZM8.289,9.522,7.048,17.388,5.1,19.425,20.295,20.7l4.874-1.108-2.183-6.964L16.57,7.452Z" transform="translate(42.831 130.355)" fill="#9e5c56"/>
        <path id="Pfad_107" data-name="Pfad 107" d="M4628.777-1843.715l-5.175-10.619,9.521-13.041h24.84l13.869,8.073,5.175,4.968-10.557-1.449-8.487-3.519s-10.764-1.656-11.8-1.863-8.073,3.519-8.073,3.519l3.105,6.831-1.035,7.1,20.907-3.581,9.728,3.581-5.381,6.769-15.111,4.14-13.248-4.14Z" transform="translate(-4529.633 1991.105)" fill="#9e5c56"/>
        <path id="Pfad_109" data-name="Pfad 109" d="M4593.322-1801.675l6.209-5.382,3.934,3.312,3.726-1.242,4.14-4.347h7.245l5.8,2.277v-7.659l-7.037-7.038,4.967-15.732,9.936,30.428-4.968,8.694-9.935,1.656-8.9,4.968-8.9-1.863Z" transform="translate(-4531.438 1992.887)" fill="#9e5c56"/>
        <path id="Schnittmenge_15" data-name="Schnittmenge 15" d="M56.66,183.367l-9.1-5,2.273-9.095,1.82-14.1-4.093-15.463-5.913-15.462-6.821-10.459L22.1,111.968H3.907L0,108.061l4.081-8.967,22.389,4.548L57.6,96.3l32.884-19.24,12.593-11.545,9.445-36.031L126.253,0l.9,3.733,4.137.878L125.47,51.869l-7,31.134L97.134,123.232s-3.149,31.834-3.149,33.233c0,.8,1.019,14.5,1.9,26.17l-2.387.732L78.944,187Z" transform="translate(68.292 169.537)" fill="#9e5c56"/>
        <path id="Pfad_104" data-name="Pfad 104" d="M4582.69-1837.749h6.491l7.1-3.307-6.492-4.042H4583.3Z" transform="translate(-4532.072 1992.433)" fill="#fff"/>
        <path id="Pfad_105" data-name="Pfad 105" d="M4635.979-1843.9l7.961,1.837,7.839-.613,12.125-3.552-9.8-3.674-13.84-.98-2.94,3.552Z" transform="translate(-4528.896 1992.089)" fill="#fff"/>
        <path id="Pfad_97" data-name="Pfad 97" d="M4624.021-1862.009l4.547-8.046,25.188-9.795,9.445,1.749,11.194,6.3,4.9,9.8-8.046-5.947-8.046-3.848-9.445-2.1-9.1,3.848-2.448,5.947-9.445,2.1Z" transform="translate(-4529.609 1990.362)" fill="#211111"/>
        <path id="Pfad_99" data-name="Pfad 99" d="M4574-1867.738l5.37-2.827,6.5,1.13,6.5,3.109,3.392,5.559-.565,4.334h-5.276l-4.429-5.559-6.124-2.355-3.863,1.79-4.428,4.146-3.015,5.559v-11.023Z" transform="translate(-4532.943 1990.915)" fill="#211111"/>
        <path id="Pfad_100" data-name="Pfad 100" d="M4632.512-1854.461l4.287,1.837,8.083-.98,10.289.98s8.452,3.43,9.309,4.532,2.817,4.042,2.817,4.042l-6.614-2.2-7.594-1.837h-2.939l.857,3.062-2.695,4.164h-4.777l-1.96-2.2-.49-5.022-3.8,1.837-1.47,3.185,1.47-5.879Z" transform="translate(-4529.103 1991.875)"/>
        <path id="Vereinigungsmenge_4" data-name="Vereinigungsmenge 4" d="M14.262,12.359H8.879V7.594H0L6.917,5.855l.675-1.2L10.043.98,17.391,0V.341l6.827,3.676L26.64,9.4,17.222,5.362v7Z" transform="translate(38.494 143.415)"/>
        <path id="Pfad_103" data-name="Pfad 103" d="M4679.534-1853.848l-2.031,3.44,2.031,2.708,1.58-1.354,1.58-2.934Z" transform="translate(-4524.302 1995.09)" fill="#211111"/>
        <path id="Pfad_114" data-name="Pfad 114" d="M4590.636-1767.328l1.433-7.006,4.936-7.484,7.324-1.752h7.325l12.42.8s8.916,3.822,9.713,4.618,12.9,6.847,12.9,6.847l-6.846,4.936-8.28,6.528-10.032,3.981-11.624,3.5-10.827-1.911-7.006-6.528Z" transform="translate(-4531.599 1996.1)" fill="#670806"/>
        <path id="Pfad_116" data-name="Pfad 116" d="M4594.243-1768.484l10.031,4.3h12.738l12.579-4.3,7.007-3.662-7.007-2.707-12.579.955-9.395.8-13.375,2.707Z" transform="translate(-4531.383 1996.619)" fill="#480100"/>
        <path id="Pfad_115" data-name="Pfad 115" d="M4598.3-1770.792l5.255-3.662,10.19-1.752,11.623,1.752-3.024,3.662-8.6,1.751h-10.19Z" transform="translate(-4531.141 1996.539)" fill="#c8a1a1"/>
      </g>
    </g>
  </g>
</svg>
