<svg xmlns="http://www.w3.org/2000/svg" width="607.971" height="803.893" viewBox="0 0 607.971 803.893">
  <path id="Shelly" d="M403.5,0H118.24l2.917,9.161-3.37,36.19v26.26l-5.894,31.812L103.469,55.45,100.1,18.42,94.213,0H0L7.54,36.6,22.87,71.612l13.137,49.236v21.883L22.87,149.294l-21.9,4.379v27.353L13.015,219.32l9.855,32.823v96.283L41.482,390l32.847,30.636c.482.241,48.279,24.07,51.46,24.07,3.1,0,47.5,21.607,52.557,24.071l27.374,30.635,13.137,7.659-2.163,9.505L210.177,529.6l-4.457,11.109-5.894-6.128h-8.052l-6.517,9.195-4.6,12.258,4.6,13.407-4.6,8.812-2.311,13.79-14.94,15.707-9.967,11.494v.018c.239,2.2,2.365,21.455,3.447,21.817,1.112.369-3.259,16.17-3.446,16.843l0,.012,5.367,9.96,4.6,17.623-4.6,18,4.6,11.493v11.109l6.517,18.389,8.423,11.492,10.362,1.915,6.134,11.109,8.432,3.448,6.9,3.832,13.034,18h11.118l20.317,7.662,4.986-3.447,20.317,5.363,14.185-1.916c.045-.037,4.572-3.631,6.9-3.631a1.484,1.484,0,0,1,.768.184c1.8,1.082,18.75,4.924,20.676,5.358l.024.005,18.786-1.916,6.134-7.662v-9.578l.024-.016c1.182-.785,11.6-7.692,13.392-8.411,1.9-.762,8.751-10.627,8.818-10.726l11.885-9.578L377.7,744.514l3.833-10.344.063-.028c1.174-.549,11.5-5.377,12.589-6.1l.006,0c2.426-1.617,10.343-7.032,10.343-8.807,0-1.861,9.489-11.017,9.585-11.109l0-.047c-.122-2.176-.693-13.082,0-14.128.748-1.121-3.644-19.877-3.831-20.675l0-.011-5.751-18.005-4.982-14.173L389.2,635.719l-11.5-6.129-6.135-12.642v-14.94L369.654,586.3v-8.045l1.916-17.237-1.916-7.281-8.818-7.277L357,543.779l-3.066-11.494-7.284-15.706-1.916-6.513,9.2-2.992,35.269-43.36L437,449.336l18.529-15.991,32.845-12.706,25.269-26.01,27.794-13.465,23.583-40.4,20.212-59.758,5.054-36.189,6.738-47.972,5.053-19.357,5.9-44.607-10.949-8.416-11.792-3.618,5.054-23.315,6.738-46.291V0h-79.1L506.06,41.986,497.636,79.86,488.371,111l-10.947,4.208-10.95,34.087v28.195l-10.948,19.357L442.892,219.32,437,190.111l-7.581-40.816-7.58-24.828V111L410.29,89.959V41.986l-.009-.018c-.337-.689-3.369-6.92-6.134-13.343-2.684-6.238-5.659-13.949-4.592-15.253C400.513,12.2,402.171,6.578,403.5,0ZM190.886,561.243h0l-3.857-6.8,0-.017c.023-.078,2.264-7.922,2.264-8.6s6.737-4.046,6.805-4.08l5.671,4.08-2.5,8.612-2.269,4.533-6.124,2.268Zm171.035,15.414-2.72-8.16-1.589-14.508,2.723,1.36,4.083,7.707,1.362,6.347-3.859,7.253Z" transform="translate(607.971 803.893) rotate(180)" fill="#707070"/>
</svg>
