<svg xmlns="http://www.w3.org/2000/svg" xmlns:xlink="http://www.w3.org/1999/xlink" width="1920" height="1501" viewBox="0 0 1920 1501">
  <defs>
    <linearGradient id="linear-gradient" x1="0.496" y1="1.306" x2="0.491" y2="-0.17" gradientUnits="objectBoundingBox">
      <stop offset="0" stop-color="#fff"/>
      <stop offset="1" stop-color="#1e4450"/>
    </linearGradient>
    <clipPath id="clip-Web_1920_2">
      <rect width="1920" height="1501"/>
    </clipPath>
  </defs>
  <g id="Web_1920_2" data-name="Web 1920 – 2" clip-path="url(#clip-Web_1920_2)">
    <rect width="1920" height="1501" fill="#fff"/>
    <g id="Gruppe_1" data-name="Gruppe 1" transform="translate(-19 154)">
      <rect id="Rechteck_1" data-name="Rechteck 1" width="1993" height="616" transform="translate(-14 -154)" fill="url(#linear-gradient)"/>
      <path id="Pfad_1" data-name="Pfad 1" d="M161.148,364.133,313,291.306l131.708-34.089L481.9,280.46l34.089-7.747,43.386-15.5,35.639,23.243,68.178-7.747,75.926,18.594,60.431,26.342,105.366,46.485,388.925,23.243L1428.641,472.6l151.851-79.025L1695.155,454l44.936-29.441,43.386-7.747,69.728-29.441,32.54,17.045,72.827,20.144V987.033H-32.54V387.375L9.3,336.242l94.52,51.134Z" fill="#727272"/>
      <path id="Pfad_2" data-name="Pfad 2" d="M633.746,383.712l167.346-64.8h37.188L875.469,301.4H901.81L920.4,268.128,945.2,280.387l20.143-12.259,10.846,12.259,23.243-26.269h34.089l17.045,14.01,24.792-14.01,38.738,14.01,12.4,33.274,92.97,17.513,21.693,21.015h77.475l46.485,17.513,85.223,47.284h119.312l60.431,59.543,30.99-35.025,34.089,7.005,44.936-31.523,91.421,24.518h114.663v800.329L-21.693,1240.082l3.1-793.324,123.96-14.01,52.683,33.274,32.54-10.508,32.54-29.772,24.792,21.015,18.594-21.015H300.6l29.441,49.035,29.441-28.02,80.574-14.01H497.39l32.54-36.777h71.277Z" transform="translate(22 3.406)" fill="#858585"/>
      <rect id="Rechteck_2" data-name="Rechteck 2" width="2139" height="701" transform="translate(-52 650)" fill="#c5c5c5"/>
      <g id="Gruppe_4" data-name="Gruppe 4">
        <path id="Pfad_9" data-name="Pfad 9" d="M-37.591,1136.91l281.477-123.777,138.446-76.1L573.039,832.512l114.608-62.347,26.589-17.42L724.269,738.1V725.75l-7.655-8.89-20.743-6.173-22.471-3.7-34.571-5.68h-33.09" fill="none" stroke="#fff" stroke-width="2"/>
        <path id="Pfad_10" data-name="Pfad 10" d="M-26.589,1161.665l211.8-90.769L341.99,990.211,522.612,877.437,653.723,799.5l67.848-46.76,4.253-12.474V727.429L723.9,738.344l-10.915,16.693-71.266,41.411-83.786,45.585L430.165,911.694l-137.4,75.118-50.079,27.929L165,1047.806,26.966,1107.515l-79.292,34.028Z" fill="#fff"/>
        <path id="Pfad_11" data-name="Pfad 11" d="M765.228,704.574l55.012,7.053,34.559,7.758,28.916,10.579,43.022,22.569,88.16,50.075,145.288,83.928,167.151,92.392,169.972,96.623,356.871,171.383,145.993,63.475" fill="none" stroke="#fff" stroke-width="2"/>
        <path id="Pfad_12" data-name="Pfad 12" d="M902.805,739.086l131.124,70.624,80.255,45.437,141,78.032,178.536,95.071,97.294,50.375,230.146,102.726,207.922,72.847,20.99,52.351-233.356-106.43-174.585-82.23-97.787-46.424-54.573-33.337L1297.165,962.07l-88.651-48.894-99.022-55.314-68.649-40L963.058,773.41Z" fill="#fff"/>
        <path id="Pfad_31" data-name="Pfad 31" d="M847.657,865.174l173.616,91.418,337.02,190.638,459.573,194.042h360.85l40.851-302.978-442.552-57.872L1280,834.04Z" transform="translate(24 -154)" fill="#92866f"/>
      </g>
      <g id="Gruppe_3" data-name="Gruppe 3" transform="translate(3 13)">
        <path id="Pfad_6" data-name="Pfad 6" d="M477.247,701.924l165.8-24.792H807.29l139.455,17.044,119.312,21.693,79.025,7.747,223.128,38.738h130.158l153.4,48.035,162.7,37.188,151.851,51.134,30.99-1013.374L1617.59-85.3,1471.207-7,1425.542,94.52l-41.837,38.738s-29.441,23.243-29.441,30.99,13.946,38.738,13.946,38.738-6.2,61.98-13.946,68.178-44.936,68.178-44.936,68.178-26.342,18.594-26.342,24.792v55.782s-38.738,17.045-43.386,18.594-30.99,40.287-30.99,40.287,6.2,35.639,9.3,40.287,1.549,32.54,0,38.738-38.738,0-38.738,0l-34.089-61.98-27.891-46.485h-41.837v15.5L1047.463,478.8l-20.144,40.287-13.945,9.3s-18.594,0-21.693,7.747-18.594,32.54-23.243,35.639-27.891-52.683-27.891-52.683l6.2-54.233V438.509l-34.089-60.431-68.178,20.144v40.287L807.29,449.356l7.747,46.485-15.495,32.54L763.9,478.8l-32.54,26.342L706.573,528.38l9.3,29.441-24.792,13.945H643.043s-24.792,4.649-29.441,12.4S598.108,610.5,598.108,616.7,477.247,701.924,477.247,701.924Z" fill="#224338"/>
        <path id="Pfad_7" data-name="Pfad 7" d="M576.415,650.791l99.168-61.98L712.771,610.5l26.341-21.693,44.936-23.243,32.539,23.243L863.073,610.5l71.277-21.693,61.98-12.4s4.648,9.3,9.3,12.4,65.079,21.693,65.079,21.693l23.243-44.936,44.936-26.342s32.54,4.649,35.639,12.4,13.946,9.3,15.495,13.945,46.485-26.342,46.485-26.342l106.916-120.861s55.782-1.549,57.332,0,61.98,30.99,61.98,30.99l44.936-49.584s40.287-68.178,44.936-69.728,57.332,61.98,57.332,61.98l52.683,46.485,150.3,51.134,66.629-29.441,29.441,38.738s61.98,13.946,63.53,24.792,0,361.034,0,361.034h-77.475l-303.7-72.827-416.816-69.728L920.4,703.474,767,680.231H627.548l-89.871,23.243Z" fill="#2d5146"/>
        <path id="Pfad_8" data-name="Pfad 8" d="M653.89,692.627h21.693s23.243-3.1,27.891,0,22.683,4.19,22.683,4.19l33.007,5.5h69.682l28.423,8.252,37.591,11.919H929.7l17.42,15.587,35.758,5.5,42.176,13.753,76.1,11.919,66.931,12.836,58.679,7.335,30.257,16.5h70.6l44.01,10.086,60.11,16.073h48.035l15.495,13.945h77.475l30.99,10.846h29.441l69.728,26.342h58.881s13.945,23.242,18.594,23.242,61.98,18.594,61.98,18.594L1871.8,942.1l44.936,20.143,37.188-7.747V782.085L1871.8,805.924l-72.827,10.086L1702.9,805.924,1614.58,757.33H1403.848l-32.219-13.753-20.464,25.672-30.99-25.672-34.731-21.088-28.423,7.326h-37.564l-10.846-19.245h-52.683s-32.539-6.308-38.737-8.252-16.036,0-16.036,0l-32,8.252-44.1-13.753s-38.582-11.937-42.176-11.937-65.574,7.748-65.574,7.748h-29.44l-23.191-4.274-39.5-6.347-27.506-3.526-13.4,6.4h-13.4l-19.748-10.632-19.748,4.232H710.217l-25.39,3.526-19.043-3.526H653.89l-16.317,9.874-14.811,4.274Z" transform="translate(0 -6)" fill="#345d50"/>
      </g>
      <g id="Gruppe_2" data-name="Gruppe 2">
        <path id="Pfad_3" data-name="Pfad 3" d="M-24.792,187.932,106.916,88.322l94.52,7.969,10.847,51.8-40.287,39.844,48.035,15.938,32.54,11.953L272.712,229.1l-20.144,23.907-9.3,29.219,43.386-14.61,38.738-33.2s24.792,6.641,26.342,10.625,40.287,0,40.287,0h17.044l17.045,31.875,10.847,30.547H466.4l23.243-15.938,24.792-23.907,17.044,9.3,15.5,14.61h21.693l18.594,6.641,10.846,9.3,29.441,17.266v23.907l-29.441,7.969-10.846,23.907,10.846,18.594,43.386,25.235,20.143,42.5v25.235l-34.089,51.8L608.954,569.11v34.532L576.415,658.1,392.024,696.612,52.683,757.706H-24.792Z" transform="translate(0 111.564)" fill="#224338"/>
        <path id="Pfad_5" data-name="Pfad 5" d="M99.678,445.73l94.837-25.988,36.476-24.62h43.771l36.476,24.62,41.947,13.678,43.771-13.678,27.357,13.678,36.476,12.31,20.062,34.194,10.943,21.884,21.886-10.942,14.59,10.942V531.9l-14.59,21.884H480.851v21.884l10.943,9.574s25.533,41.033,21.886,45.136,38.3,32.826,38.3,32.826,18.238,41.033,18.238,46.5-18.238,27.355-18.238,27.355l-176.908,61.55L112.445,877.946-17.045,898.463-4.278,479.925l47.419-46.5,29.181,12.31H99.678Z" transform="translate(0 66.877)" fill="#2d5146"/>
        <path id="Pfad_4" data-name="Pfad 4" d="M371.88,708.122h37.188l32.54-35.639h48.035l26.342,17.044,49.584-24.792L613.6,681.781l34.089,7.747,37.188,18.594s15.495,13.945,15.495,20.143-7.747,21.693-7.747,21.693l-44.936,21.693L565.568,782.5l-7.747,24.792-68.178,40.287H429.212s-40.287,9.3-40.287,13.945-17.044,20.144-17.044,20.144l-75.926,35.639-74.376,43.386L133.257,996.33l-46.485,13.945-48.035,58.881L-18.594,1086.2V790.246l48.035-40.287h94.52l24.792,21.693h26.342l9.3-13.945h27.891l15.5,24.792,57.332-46.485h63.53Z" transform="translate(5 14)" fill="#345d50"/>
      </g>
      <g id="Gruppe_5" data-name="Gruppe 5" transform="translate(-226 -47)">
        <path id="Pfad_21" data-name="Pfad 21" d="M1485.968,605.455l162.214,3.8,2.713,107.419-161.129-2.713Z" fill="#7f92ba"/>
        <path id="Pfad_23" data-name="Pfad 23" d="M1488.6,714.46l51.331-83.882,25.039,37.559,25.04-41.315,58.843,87.638s-40.9,19.2-42.15,19.2S1488.6,714.46,1488.6,714.46Z" fill="#858585"/>
        <path id="Schnittmenge_1" data-name="Schnittmenge 1" d="M51.33,94.379,39.774,96.627l-7.782-1.686,19.339-31.6,16.827,25.24L61.282,100.8Zm33.536-7.5,16.544-27.3,16.61,24.738-4.092-.854-18.94,8.988Z" transform="translate(1488.597 567.24)" fill="#d8cece"/>
        <path id="Pfad_22" data-name="Pfad 22" d="M1490.308,751.393h161.129l-3.255-94.4-15.191,34.179L1617.8,672.185l-7.6,18.988-7.053,27.669-23.871,7.6-19.531-16.818-8.138,9.223-22.243-9.223-7.6-31.466-5.425-30.381v30.381l-8.138-5.968-7.053,11.393L1488.138,663.5Z" fill="#345d50" stroke="#707070" stroke-width="1"/>
        <path id="Pfad_26" data-name="Pfad 26" d="M1513.282,665.151l6.42,16.372,6.741-4.494,2.889,4.494,7.383-4.494,4.173,4.494H1562.4l4.173-2.247,6.741,4.494,3.852-2.247h5.136l6.42-2.247,3.531,2.247,7.7-2.247,6.1,2.247h15.73l-4.815-8.025,4.815-8.346H1610.23l-4.173,6.741-3.852-6.741L1596.747,669l-4.494-3.852H1582.3l-8.989,2.568-1.605-2.568h-9.31L1560.793,669l-5.457-3.852h-23.755l-2.247,2.568-7.7-4.173Z" fill="#f2b151"/>
        <path id="Pfad_27" data-name="Pfad 27" d="M1502.368,693.722c.642-.642,1.605,5.136,1.605,5.136l4.173,2.568v8.346l4.494,1.926,1.605-12.841,12.52,12.841,4.173-4.815,3.852,4.815,7.063-4.815,1.605,2.889,6.741,1.926h5.457l1.605-4.815,4.173,4.815,3.852-14.446-6.42-1.605-8.667-1.926h-15.409l-8.025,3.531-6.1-3.531S1501.726,694.364,1502.368,693.722Z" fill="#f2b151"/>
        <path id="Pfad_28" data-name="Pfad 28" d="M1574.6,695.006v15.088h4.815v-5.457l5.136-4.494v9.952h10.273l6.42,1.926,5.136-4.494v4.494h6.741l6.42-4.494v2.568l7.383,1.926h6.741l2.889-7.383-2.889-4.494,2.889-5.136h-20.224l-7.062,1.926-8.026-1.926H1574.6Z" fill="#f2b151"/>
        <path id="Pfad_29" data-name="Pfad 29" d="M1488.138,916.157l7.053,3.526h8.463l-11.99-319.491,3.526-7.053h-16.221l-6.347,7.053h6.347Z" fill="#634029"/>
        <path id="Pfad_30" data-name="Pfad 30" d="M1653.878,919.683l5.642,3.526,11.285-3.526L1653.878,600.9V594.55h-18.337l-3.526,6.347,8.463,4.232Z" fill="#634029"/>
      </g>
    </g>
  </g>
</svg>
